<svg version="1.1" id="Layer_1" xmlns="http://www.w3.org/2000/svg" xmlns:xlink="http://www.w3.org/1999/xlink" x="0px" y="0px"
	 width="406.7px" height="243.609px" viewBox="0 0 406.7 243.609" style="enable-background:new 0 0 406.7 243.609;"
	 xml:space="preserve">

<defs>
<style type="text/css">
	.st0{stroke:#FFFFFF;stroke-miterlimit:10;}
</style>
</defs>

<path d="M104.368,142.982c-2.049-1.421-12.446-8.258-19.006-5.58c-1.051,0.27-4.394,0.663-6.857,0.953
	c-9.95,1.171-17.336,2.217-21.744,5.022c-1.574,0.936-9.61,3.462-19.357,4.957c-12.703,1.948-18.043,0.659-18.99,0.028
	c-4.338-3.524-4.394-5.81-4.413-6.561c-0.08-3.245,3.001-7.839,8.675-12.933c9.699-8.708,29.879-17.09,59.982-24.913l0.242-0.063
	c0.402-0.104,0.987-0.237,1.696-0.39c-1.954-3.239-4.377-7.539-6.908-12.72c-13.287,3.468-47.85,12.841-64.365,27.668
	c-9.152,8.216-13.508,15.967-13.318,23.696c0.155,6.295,3.378,12.041,9.58,17.08c11.694,9.502,48.118,0.143,54.668-4.024
	c2.185-1.332,11.439-2.422,15.887-2.945c4.457-0.523,7.118-0.854,9.043-1.387c3.722,1.036,17.263,7.958,16.338,19.358
	c-0.867,10.691-18.787,24.334-29.882,30.424c-0.001,0.001-0.003,0.002-0.004,0.003L79,206.795l3.359,6.142
	c3.614-1.977,35.364-19.937,37.118-41.576C120.351,160.589,114.843,150.244,104.368,142.982z"/>
<path d="M398.3,223.696l0.091-0.066c-0.209,0.144-21.717,13.825-51.32-0.625c-5.966-2.911-13.106-7.51-13.245-12.884
	c-0.066-2.595,1.688-12.152,27.065-26.201c14.303-7.918,21.576-15.218,22.889-22.973c1.224-7.226-3.164-12.13-5.037-14.224
	c-0.153-0.172-0.298-0.332-0.428-0.483c-3.254-3.797-17.805-11.741-31.333-14.749c-2.569,4.102-5.509,8.338-8.882,12.739
	c9.45,0.232,26.315,8.235,29.71,11.265c0.155,0.179,0.322,0.366,0.499,0.562c0.966,1.08,1.758,2.018,1.668,2.553
	c-0.082,0.483-1.223,4.954-15.867,13.062c-23.08,12.776-34.613,25.834-34.279,38.811c0.257,9.95,7.355,18.396,21.1,25.104
	c12.293,5.999,23.546,8.022,33.14,8.022c19.748-0.002,32.452-8.58,32.631-8.714L398.3,223.696z"/>
<path d="M217.258,165.115c-2.497-2.543-5.079-5.174-7.49-7.929c-6.917-7.905-9.349-17.929-10.183-23.2
	c-1.383-8.739-0.056-14.138,0.637-15.282c2.177-1.95,10.218-4.736,18.889-5.197c-0.206-1.476-0.401-2.974-0.577-4.51
	c0,0-0.273-3.552-0.153-9.472c-5.735,0.292-11.273,1.392-16.011,2.927c-0.123,0.616-0.24,1.221-0.369,1.845
	c0,0-4.037,17.835-16.257,32.059c1.717,10.492,6.188,21.707,13.489,30.05c2.675,3.057,5.399,5.833,8.035,8.518
	c12.638,12.875,16.598,17.909,8.519,29.331c-1.217,1.721-2.666,2.551-4.847,2.776c-11.142,1.17-32.086-14.022-42.671-23.859
	l-9.538,10.248c0.318,0.297,7.911,7.337,17.952,14.216c14.312,9.807,26.32,14.292,35.688,13.322
	c6.174-0.637,11.307-3.617,14.845-8.619C242.458,190.787,228.484,176.553,217.258,165.115z"/>
<g>
	<path d="M346.637,66.282c1.806,0.202,5.673,0.206,9.374,1.568c3.506-3.019,7.117-6.658,10.824-11.023l-10.67-9.062
		c-9.349,11.007-17.32,16.254-24.287,18.259C339.011,66.127,344.343,66.026,346.637,66.282z"/>
	<path d="M232.145,38.76c2.629-4.282,7.266-9.765,14.063-10.576c20.131-13.176,35.487-14.918,40.541-14.001
		c2.101,0.382,2.841,1.251,3.289,2.051c1.361,2.435,1.131,7.173-0.562,11.524c-1.664,4.281-5.923,16.412-5.408,27.076
		c6.472,4.511,14.67,8.872,23.089,9.791c2.757,0.301,5.459,0.537,8.082,0.724c-2.704-0.912-5.244-2.068-7.66-3.173
		c-2.673-1.223-5.198-2.378-7.702-3.104c-0.413-0.12-0.709-0.25-1.055-0.951c-1.956-3.96-0.365-14.832,3.702-25.289
		c3.297-8.478,3.196-17.238-0.27-23.433c-2.699-4.826-7.196-7.936-13.003-8.991c-12.099-2.202-44.444,3.553-80.311,41.049
		c-0.945,0.988-1.949,1.957-2.996,2.911c0.661,5.282,1.023,10.943,1.011,17.1c4.503-3.22,8.586-6.658,12.102-10.334
		C223.528,46.461,227.9,42.369,232.145,38.76z"/>
</g>
<path class="st0" d="M346.637,66.282c-4.519-0.505-20.809,0.381-39.48-1.657c-18.671-2.038-36.289-21.003-36.289-21.003
	c-4.667-8.86-17.385-14.562-17.385-14.562c-16.374-5.66-23.967,14.903-23.967,14.903c-13.503,32.749-10.984,65.034-10.984,65.034
	c6.844,59.813,37.293,73.806,37.293,73.806c32.811,13.13,63.427-17.032,63.427-17.032c30.985-31.698,40.179-54.787,44.75-77.265
	C368.576,66.027,351.156,66.786,346.637,66.282z M251.656,87.466c4.502,4.715,10.68,2.634,10.68,2.634l13.932-4.289
	c2.314,3.146-10.515,11.311-10.515,11.311c-8.479,3.059-16.133-1.404-16.133-1.404c-5.107-4.349-8.79-18.647-8.79-18.647
	S247.154,82.751,251.656,87.466z M298.987,166.225c0,0-25.683-31.674-63.978-28.043c0,0,15.96-21.724,39.698-15.52
	C274.707,122.662,303.769,134.326,298.987,166.225z M319.353,123.657c-9.012,0.17-14.825-6.516-14.825-6.516
	c-3.438-5.76-2.329-20.484-2.329-20.484s4.162,7.411,6.909,13.323c2.747,5.912,9.266,5.928,9.266,5.928l14.571,0.418
	C334.126,120.049,319.353,123.657,319.353,123.657z"/>
<path class="st0" d="M198.5,14.795c-8-21.5-22-11.5-26-9.5s-17,11.5-33.5,19.802c-16.5,8.302-41,1.698-41,1.698c-8.5-5-22-3-22-3
	c-16.5,4-12,25.5-12,25.5c6,35,25,61,25,61c37,47,69.5,42.5,69.5,42.5c34-6.5,43.5-48.5,43.5-48.5
	C211,60.795,206.5,36.295,198.5,14.795z M92.5,80.295c-3-2.5,7.5-13.5,7.5-13.5c7.5-5,16-2.5,16-2.5c6,3,13,16,13,16s-7.5-4-13-7.5
	s-11,0-11,0L92.5,80.295z M160.468,128.178c0,0-33.368,8.256-49.655-22.87c0,0,43.247,11.511,74.979-16.093
	C185.792,89.215,185.582,118.51,160.468,128.178z M176.391,58.553c-6.421-1.13-10.163,4.208-10.163,4.208l-8.68,11.711
	c-3.728-1.162,1.765-15.342,1.765-15.342c5.017-7.489,13.827-8.431,13.827-8.431c6.691,0.477,18.132,9.81,18.132,9.81
	S182.812,59.683,176.391,58.553z"/>
</svg>
