<svg version="1.1" id="Layer_1" xmlns="http://www.w3.org/2000/svg" xmlns:xlink="http://www.w3.org/1999/xlink" x="0px" y="0px"
	 width="436px" height="392px" viewBox="0 0 436 392" style="enable-background:new 0 0 436 392;" xml:space="preserve">
<path d="M395.618,61.97l5.669-5.741c4.657-4.716,4.609-12.313-0.106-16.97l-22.073-21.798c-4.716-4.657-12.313-4.609-16.97,0.106
	l-5.477,5.546l-2.525-2.519c-2.451-2.444-6.724-2.134-9.544,0.694s-3.12,7.102-0.669,9.546l2.576,2.57l-4.247,4.3l-2.616-2.61
	c-2.451-2.444-6.724-2.134-9.544,0.694s-3.12,7.102-0.669,9.546l2.667,2.66l-3.68,3.726c-3.665,3.711-4.403,9.204-2.257,13.647
	l-59.912,61.599c-9.132-8.203-34.271-27.548-64.867-23.901c-30.642,3.659-34.103,23.422-36.17,35.231
	c-0.715,4.084-1.39,7.941-2.794,10.224c-5.953,9.673-30.323,24.324-47.946,23.49c-17.813-0.905-47.297,18.584-61.874,40.812
	c-11.941,18.21-13.932,37.523-5.607,54.382c32.61,66.036,70.554,92.434,90.27,102.291c13.248,6.624,25.741,8.788,36.411,8.787
	c10.931,0,19.95-2.271,25.9-4.345c14.094-4.91,25.14-13.479,29.546-22.922c0.217-0.466,21.757-46.788,23.833-65.469
	c1.115-10.038,15.587-26.506,22.62-27.678C290.793,255.332,318,238.835,318,215c0-17.216-6.946-42.405-22.322-62.363l58.211-59.851
	c4.479,2.121,9.991,1.322,13.67-2.404l3.487-3.531l5.067,5.054c2.451,2.445,6.724,2.134,9.544-0.694
	c2.82-2.828,3.12-7.102,0.669-9.546l-5.118-5.104l4.247-4.3l5.158,5.144c2.451,2.445,6.724,2.134,9.544-0.694
	c2.82-2.828,3.12-7.102,0.669-9.546L395.618,61.97z M299,215c0,11.577-17.232,22.574-26.562,24.129
	c-17.234,2.873-36.545,27.808-38.38,44.322c-1.21,10.892-13.691,41.369-22.167,59.531c-1.755,3.763-8.319,9.439-18.58,13.015
	c-8.93,3.113-26.985,6.796-47.562-3.494c-29.919-14.96-59.709-49.115-81.73-93.709c-5.374-10.883-3.874-22.843,4.459-35.55
	c12.864-19.617,36.913-32.649,45.06-32.256c24.22,1.174,55.397-16.818,65.054-32.51c3.311-5.379,4.382-11.502,5.328-16.904
	c1.994-11.386,3.092-17.657,19.708-19.641c22.266-2.664,41.923,12.179,49.342,18.68l-65.447,67.291l27.957,27.191l66.772-68.653
	C293.265,181.93,299,201.77,299,215z M346.179,64.904c-1.173,1.17-3.073,1.168-4.243-0.005c-1.17-1.173-1.168-3.072,0.005-4.243
	l27.628-27.561c1.173-1.17,3.073-1.168,4.243,0.005c1.17,1.173,1.168,3.073-0.005,4.243L346.179,64.904z M387.981,51.496
	l-27.628,27.561c-1.173,1.17-3.072,1.168-4.243-0.005s-1.168-3.073,0.005-4.243l27.628-27.561c1.173-1.17,3.073-1.168,4.243,0.005
	C389.157,48.426,389.154,50.326,387.981,51.496z"/>
<circle cx="200.25" cy="221.25" r="33.25"/>
<path d="M171.524,311.715c-2.383,2.349-6.556,1.98-9.321-0.825l-51.312-52.052c-2.765-2.805-3.074-6.983-0.691-9.332l3.775-3.722
	c2.383-2.349,6.556-1.98,9.321,0.825l51.312,52.052c2.765,2.805,3.074,6.983,0.691,9.332L171.524,311.715z"/>
</svg>
