<?xml version="1.0" encoding="utf-8"?>
<!-- Generator: Adobe Illustrator 18.1.0, SVG Export Plug-In . SVG Version: 6.00 Build 0)  -->
<svg version="1.1" xmlns="http://www.w3.org/2000/svg" xmlns:xlink="http://www.w3.org/1999/xlink" x="0px" y="0px"
	 viewBox="0 0 193.8 206.5" style="enable-background:new 0 0 193.8 206.5;" xml:space="preserve">
<style type="text/css">
	.st0{fill:#F6F6E2;}
	.st1{fill:#E31D1A;}
</style>
<g id="Layer_2">
	<rect class="st0" width="193.5" height="206.5"/>
	<g id="Layer_3">
	</g>
	<g>
		<polygon class="st1" points="52.1,62.5 92.9,103.6 68.3,128.5 49.8,128.5 74.8,103.4 67.8,96.5 52.8,111.5 33.8,111.5 58,87.5 
			33.8,62.5 		"/>
		<polygon class="st1" points="73.8,131.5 114.9,90.7 139.8,115.4 139.8,133.9 114.5,108.9 107.6,115.9 122.8,130.9 122.8,149.9 
			98.8,125.7 73.8,149.9 		"/>
		<polygon class="st1" points="143.6,110.5 102.8,69.4 127.4,44.5 145.9,44.5 120.9,69.4 127.9,76.5 142.9,61.5 161.9,61.5 
			137.7,85.5 161.9,110.5 		"/>
		<polygon class="st1" points="122.8,41.1 81.6,81.9 56.8,57.2 56.8,38.7 81.5,63.7 88.6,56.7 73.8,41.7 73.8,22.7 97.8,47 
			122.8,22.7 		"/>
		<g>
			<path class="st1" d="M37.7,175.6c-0.1,0-0.2,0-0.4,0h-3.8v7.8h-1.3v-22.6h5.9c1.7,0.2,3.2,1,4.4,2.2c1.4,1.4,2.2,3.2,2.2,5.2
				c0,2-0.7,3.8-2.2,5.2c-1,1-2.1,1.7-3.4,2l5.2,8h-1.6L37.7,175.6z M33.4,162.2v12.2h3.8c1.7,0,3.1-0.6,4.3-1.8
				c1.2-1.2,1.8-2.6,1.8-4.3c0-1.7-0.6-3.1-1.8-4.3s-2.6-1.8-4.3-1.8H33.4z"/>
			<path class="st1" d="M58.8,160.9v1.3h-10v9.4h10v1.3h-10v9.4h10v1.3H47.5v-22.6H58.8z"/>
			<path class="st1" d="M75,162.2H62.7v-1.3h14.5l-12.3,21.3h12.3v1.3H62.7L75,162.2z"/>
			<path class="st1" d="M100.4,180.7c-2.1,2.1-4.7,3.1-7.7,3.1c-3.2,0-5.9-1.1-8.2-3.4c-2.3-2.3-3.4-5-3.4-8.2
				c0-3.2,1.1-5.9,3.4-8.2c2.3-2.3,5-3.4,8.2-3.4c3,0,5.6,1,7.8,3l-1,0.9c-1.9-1.7-4.2-2.6-6.8-2.6c-2.8,0-5.3,1-7.3,3s-3,4.4-3,7.3
				c0,2.8,1,5.3,3,7.3c2,2,4.4,3,7.3,3c2.4,0,4.6-0.7,6.4-2.2v-6.9h1.3V180.7z"/>
			<path class="st1" d="M117.8,160.9h1.3v16.2c-0.2,1.7-1,3.2-2.2,4.4c-1.4,1.4-3.2,2.2-5.2,2.2c-2,0-3.8-0.7-5.2-2.2
				s-2.2-3.2-2.2-5.2v-15.4h1.3v15.4c0,1.7,0.6,3.1,1.8,4.3c1.2,1.2,2.6,1.8,4.3,1.8s3.1-0.6,4.3-1.8c1.2-1.2,1.8-2.6,1.8-4.3V160.9
				z"/>
			<path class="st1" d="M124.9,160.9v22.6h-1.3v-22.6H124.9z"/>
			<path class="st1" d="M130.7,160.9L130.7,160.9c3.8,0,6.7,1,8.7,3.1c2.3,2.3,3.4,5,3.4,8.2c0,3.2-1.1,5.9-3.4,8.2
				c-2,2.1-4.9,3.1-8.6,3.1h-0.1v0h-1.3v-22.6L130.7,160.9L130.7,160.9z M130.7,162.2v20h0.1c3.4,0,5.9-0.9,7.7-2.7c2-2,3-4.4,3-7.3
				c0-2.8-1-5.3-3-7.3C136.7,163.1,134.1,162.2,130.7,162.2L130.7,162.2z"/>
			<path class="st1" d="M157.7,160.9v1.3h-10v9.4h10v1.3h-10v9.4h10v1.3h-11.3v-22.6H157.7z"/>
		</g>
	</g>
</g>
<g id="Layer_5">
</g>
</svg>
