<?xml version="1.0" encoding="utf-8"?>
<!-- Generator: Adobe Illustrator 18.1.0, SVG Export Plug-In . SVG Version: 6.00 Build 0)  -->
<svg version="1.1" id="Layer_2" xmlns="http://www.w3.org/2000/svg" xmlns:xlink="http://www.w3.org/1999/xlink" x="0px" y="0px"
	 viewBox="0 0 193.8 206.5" style="enable-background:new 0 0 193.8 206.5;" xml:space="preserve">
<style type="text/css">
	.st0{fill:#00AEEF;}
	.st1{fill:#006E97;}
	.st2{fill:#FFFFFF;}
</style>
<rect class="st0" width="193.5" height="206.5"/>
<g id="Layer_3">
	<path class="st1" d="M26.5,86.8c0,0,54,10.5,69.9-10.3c0,0,14.3,20,69.9,10.4l27.5,26.2v93.3h-111l-40.9-40.3
		C41.9,166.2,9.2,145.5,26.5,86.8z"/>
</g>
<g>
	<path class="st2" d="M139.3,62.3c-9.8-6.3-9.6-11.4-27.6-11.2c0,0-11,2.1-15,7.5c-4-5.4-15-7.5-15-7.5c-18-0.2-17.8,5-27.6,11.2
		c-9.8,6.3-37.4,16.9-37.4,16.9c4.6,2.2,37.2,7.3,54.5,4.4s25.5-13.1,25.5-13.1s8.2,10.2,25.5,13.1s49.9-2.2,54.5-4.4
		C176.8,79.2,149.2,68.5,139.3,62.3z"/>
	<path class="st2" d="M166.7,86.8c0,0-51.5,10.2-69.9-9.9l0-0.5c-0.1,0.1-0.1,0.2-0.2,0.2c-0.1-0.1-0.1-0.2-0.2-0.2l0,0.5
		c-18.4,20-69.9,9.9-69.9,9.9s-11,34.2-0.7,58c10.1,23.2,30.4,35.4,70.8,35.2c40.4,0.2,60.7-12,70.8-35.2
		C177.7,121,166.7,86.8,166.7,86.8z"/>
</g>
</svg>
