<?xml version="1.0" encoding="utf-8"?>
<!-- Generator: Adobe Illustrator 18.1.0, SVG Export Plug-In . SVG Version: 6.00 Build 0)  -->
<svg version="1.1" xmlns="http://www.w3.org/2000/svg" xmlns:xlink="http://www.w3.org/1999/xlink" x="0px" y="0px"
	 viewBox="0 0 193.8 206.5" style="enable-background:new 0 0 193.8 206.5;" xml:space="preserve">
<style type="text/css">
	.st0{fill:#B7DA76;}
	.st1{fill:none;}
	.st2{fill:#231F20;}
</style>
<g id="Layer_2">
	<rect class="st0" width="193.5" height="206.5"/>
	<g id="Layer_3">
	</g>
	<g>
		<path class="st1" d="M-0.3,0.5V203l11.4-13.8l66.3-79.3c-4.6-4,0,0-19.8-22.6c-19.9-22.6,8.5-48.1,8.5-48.1l24.2-24.3l7.3,6.6
			c0,0-23,22.5-31.5,36.2c-8.5,13.7,4.2,27.2,4.2,27.2s23.6,26.9,46.1,36.1c22.5,9.2,31.9-6.9,31.9-6.9L173,84.7l6.7,4.9
			c0,0-6.4,12.6-18.2,27.1S141.9,138,124.9,136c-17-2-37.1-18.1-37.1-18.1l-66.5,78.7l-8.5,9.9h180.9V0.5H-0.3z"/>
		<path class="st2" d="M87.9,117.9c0,0,20,16.1,37.1,18.1c17,2,24.9-4.8,36.6-19.3s18.2-27.1,18.2-27.1l-6.7-4.9l-24.8,29.5
			c0,0-9.4,16.2-31.9,6.9c-22.5-9.2-46.1-36.1-46.1-36.1s-12.7-13.5-4.2-27.2C74.6,44,97.6,21.5,97.6,21.5l-7.3-6.6L66.1,39.3
			c0,0-28.3,25.5-8.5,48.1c19.9,22.6,15.2,18.6,19.9,22.6l-66.4,79.3L-0.3,203v3.5h13.1l8.5-9.9L87.9,117.9z"/>
	</g>
</g>
<g id="Layer_4">
</g>
</svg>
