<?xml version="1.0" encoding="utf-8"?>
<!-- Generator: Adobe Illustrator 18.1.0, SVG Export Plug-In . SVG Version: 6.00 Build 0)  -->
<svg version="1.1" xmlns="http://www.w3.org/2000/svg" xmlns:xlink="http://www.w3.org/1999/xlink" x="0px" y="0px"
	 viewBox="0 0 193.8 206.5" style="enable-background:new 0 0 193.8 206.5;" xml:space="preserve">
<style type="text/css">
	.st0{fill:#0E1C37;}
	.st1{fill:#525C5E;}
</style>
<g id="Layer_2">
	<rect class="st0" width="193.5" height="206.5"/>
	<g id="Layer_3">
	</g>
</g>
<g id="Layer_4">
	<path class="st1" d="M6.7,139.2c0-0.2,0-0.4,0.1-0.6C6.8,138.6,6.6,138.9,6.7,139.2z"/>
	<path class="st1" d="M186.7,138.6c0,0.2,0,0.4,0.1,0.6C186.9,138.9,186.7,138.6,186.7,138.6z"/>
	<path class="st1" d="M172.3,156.5H96.7H21.2c0,0,3.5,3.1,0,7.2c-2.4,2.8,1.6,4.1,4.4,4.7c0.4,0.7,1.9,2.6,7.2,2.6
		c0,0,6.3,0.5,7.5-2.1c18.3,0.2,51,0.6,56.4,0.6c5.1,0,38.1-0.4,56.4-0.6c1.3,2.6,7.5,2.1,7.5,2.1c5.3,0,6.8-1.9,7.2-2.6
		c2.8-0.6,6.8-1.8,4.4-4.7C168.8,159.6,172.3,156.5,172.3,156.5z"/>
	<path class="st1" d="M186.8,139.2c-0.3,0.6-2.1,1.6-9.6,1.6c-11.4,0-77.9,0.6-80.5,0.6s-69-0.6-80.4-0.6c-7.5,0-9.3-0.9-9.6-1.6
		c-0.7,7,2.6,11.9,2.6,11.9c2.9,0.3,22.1,1.3,25.1,1.4c3,0.2,62.4,0,62.4,0s59.3,0.2,62.4,0s22.2-1.1,25.1-1.4
		C184.2,151.2,187.5,146.2,186.8,139.2z M46.8,147.2c0,0.7-0.6,1.3-1.3,1.3H29c-0.7,0-1.3-0.6-1.3-1.3v-3.5c0-0.7,0.6-1.3,1.3-1.3
		h16.5c0.7,0,1.3,0.6,1.3,1.3V147.2z M165.8,147.2c0,0.7-0.6,1.3-1.3,1.3H148c-0.7,0-1.3-0.6-1.3-1.3v-3.5c0-0.7,0.6-1.3,1.3-1.3
		h16.5c0.7,0,1.3,0.6,1.3,1.3V147.2z"/>
	<path class="st1" d="M183.3,134c-0.2-7.5-6.9-15.4-6.9-15.4c-8.9-8.4-29.9-17.1-29.9-17.1C134.6,89.6,125,85.4,125,85.4l-14,0
		l-3.1-2.9l3.3-12.8c0,0,5.4-3.5,12.1-6c6.7-2.5,15,0.1,15,0.1c-1,3.2,0.9,2.5,0.9,2.5c5.1,1.4,11.4-5.9,11.4-5.9s2.4,1.3,2.5-0.2
		c0.1-1.4,3.9-4.1,3.9-4.1l5.9-5.1c0,0-8.9-8.1-15.2-7.8c-6.3,0.3-10.9,1.8-12.2,1.9c-1.3,0.2-1.4-5.7-1.4-5.7s-3.8-0.9-5.1,0
		c-1.3,1-2.5,11.3-2.5,11.3c-6.3,4.6-17.3,16-17.3,16l-4.3,18.4l-7.9,0l-7.9,0l-4.3-18.4c0,0-10.9-11.4-17.3-16
		c0,0-1.3-10.4-2.5-11.3c-1.3-1-5.1,0-5.1,0s-0.2,5.9-1.4,5.7c-1.3-0.2-5.9-1.6-12.2-1.9C39.6,43,30.7,51,30.7,51l5.9,5.1
		c0,0,3.8,2.7,3.9,4.1c0.1,1.4,2.5,0.2,2.5,0.2s6.3,7.3,11.4,5.9c0,0,1.8,0.6,0.9-2.5c0,0,8.3-2.6,15-0.1c6.7,2.5,12.1,6,12.1,6
		l3.3,12.8l-3.1,2.9l-14,0c0,0-9.6,4.2-21.5,16.1c0,0-21.1,8.7-29.9,17.1c0,0-6.7,7.9-6.9,15.3c0,0-1,4.5,5.3,4.5s39.4,0,39.4,0
		l0.3,1h41.6h41.6l0.3-1c0,0,33,0,39.4,0S183.3,134,183.3,134z M129.3,53.3l-4,5.1c0,0-5.9,0.6-8.6,3.3
		C114.1,64.4,122.9,53.4,129.3,53.3z M76.8,61.7c-2.7-2.7-8.6-3.3-8.6-3.3l-4-5.1C70.6,53.4,79.5,64.4,76.8,61.7z M69.4,87.5h56.2
		c0,0,15.7,10,17.9,14.1c0,0-30.6,1.4-46.1,1.2c-15.5,0.2-46-1.2-46-1.2C53.6,97.5,69.4,87.5,69.4,87.5z M34.8,133.2
		c0,0.7-0.6,1.3-1.3,1.3H17c-0.7,0-1.3-0.6-1.3-1.3v-7.5c0-0.7,0.6-1.3,1.3-1.3h16.5c0.7,0,1.3,0.6,1.3,1.3V133.2z M55.8,133.2
		c0,0.7-0.6,1.3-1.3,1.3H38c-0.7,0-1.3-0.6-1.3-1.3v-7.5c0-0.7,0.6-1.3,1.3-1.3h16.5c0.7,0,1.3,0.6,1.3,1.3V133.2z M129.8,137.5h-66
		v-1h66V137.5z M129.8,133.5h-66v-1h66V133.5z M129.8,129.5h-66v-1h66V129.5z M129.8,125.5h-66v-1h66V125.5z M156.8,133.2
		c0,0.7-0.6,1.3-1.3,1.3H139c-0.7,0-1.3-0.6-1.3-1.3v-7.5c0-0.7,0.6-1.3,1.3-1.3h16.5c0.7,0,1.3,0.6,1.3,1.3V133.2z M177.8,133.2
		c0,0.7-0.6,1.3-1.3,1.3H160c-0.7,0-1.3-0.6-1.3-1.3v-7.5c0-0.7,0.6-1.3,1.3-1.3h16.5c0.7,0,1.3,0.6,1.3,1.3V133.2z"/>
</g>
</svg>
