<?xml version="1.0" encoding="utf-8"?>
<!-- Generator: Adobe Illustrator 17.0.0, SVG Export Plug-In . SVG Version: 6.00 Build 0)  -->
<!DOCTYPE svg PUBLIC "-//W3C//DTD SVG 1.1//EN" "http://www.w3.org/Graphics/SVG/1.1/DTD/svg11.dtd">
<svg version="1.1" id="Layer_1" xmlns="http://www.w3.org/2000/svg" xmlns:xlink="http://www.w3.org/1999/xlink" x="0px" y="0px"
	 width="269.658px" height="213.316px" viewBox="0 0 269.658 213.316" style="enable-background:new 0 0 269.658 213.316;"
	 xml:space="preserve">
<style type="text/css">
	.st0{fill:#8A291C;}
	.st1{fill:url(#SVGID_1_);}
	.st2{fill:#010101;}
	.st3{fill:url(#SVGID_2_);}
	.st4{opacity:0.67;fill:#FFFFFF;}
	.st5{fill:none;stroke:#010101;stroke-miterlimit:10;}
	.st6{fill:url(#SVGID_3_);}
	.st7{opacity:0.6;fill:#FFFFFF;}
	.st8{opacity:0.57;fill:url(#SVGID_4_);}
	.st9{opacity:0.5;fill:#F3F3F3;}
	.st10{fill:#FFFFFF;}
</style>
<path id="cup_shadow" class="st0" d="M269.186,178.856c1.453-1.653-0.696-2.33-3.097-2.819c-2.4-0.488-9.16-1.041-12.546-1.203
	c-3.385-0.162-1.585-0.65-1.585-0.65s0.774-0.234,1.367-0.439c2.566-0.741,4.446-1.306,4.773-1.464
	c1.22-0.588,0.436-1.099,0.436-1.099s-2.389-0.717-6.609-1.178c-4.22-0.46-10.492-1.062-12.788-1.215
	c-2.295-0.153-18.815-1.202-18.815-1.202s-8.457-0.415-11.286-0.576l-11.075-0.494c0,0-17.509-0.579-20.05-0.658
	c-2.541-0.079-10.458-0.156-16.153-0.17c-5.695-0.014-11.489,0.312-11.489,0.312s-3.469,0.308-5.938,0.836
	c-2.469,0.528-21.55,6.937-21.55,6.937s-54.392,18.291-64.356,23.022c-10.329,4.904-15.931,10.551-16.505,12.419
	c-0.484,1.574,13.113,3.722,19.232,4.045c6.577,0.28,19.963-0.536,28.484-1.704c10.247-1.405,39.384-5.868,59.849-10.402
	c7.565-1.676,22.001-5.369,36.839-9.263l0,0c1.708-0.032,3.72-0.282,3.72-0.282s14.434-1.118,22.062-1.816
	c7.628-0.697,14.452-1.491,26-3.063c11.548-1.572,19.155-3.534,19.155-3.534S267.733,180.51,269.186,178.856z M239.571,184.876
	c-13.1,1.929-20.076,2.514-22.024,2.708c-1.948,0.194-14.676,1.107-17.103,1.163c-1.044,0.024-1.762,0.031-2.312,0.029
	c19.149-5.079,36.029-9.671,36.029-9.671s0.4-0.11,1.085-0.298h0c0,0,4.913-1.166,6.606-1.085c1.693,0.081,3.963-0.097,3.963-0.097
	c7.649-0.377,12.016,0.46,12.016,0.46c4.068,1.085-0.215,2.804-0.215,2.804S252.67,182.947,239.571,184.876z"/>
<linearGradient id="SVGID_1_" gradientUnits="userSpaceOnUse" x1="68.7039" y1="213.3158" x2="68.7039" y2="37.6428">
	<stop  offset="0" style="stop-color:#A6A6A4"/>
	<stop  offset="1" style="stop-color:#FFFFFF"/>
</linearGradient>
<path class="st1" d="M137.25,47.526c-0.753-2.186-3.327-3.788-3.327-3.788s-4.954-2.04-10.928-2.914
	c-5.974-0.874-14.57-1.894-17.484-2.04c-2.914-0.146-23.71-1.02-23.71-1.02s-10.226-0.035-13.723-0.121l-13.222,0.121
	c0,0-20.21,0.874-23.124,1.02s-11.416,1.166-17.39,2.04S3.46,43.738,3.46,43.738s-2.551,1.603-3.303,3.788
	c-0.753,2.186,1.445,26.955,1.445,26.955s6.336,70.678,12.245,88.296c6.125,18.261,19.724,38.271,25.552,44.682
	c4.912,5.403,22.1,5.756,29.577,5.857c7.806-0.117,23.275-0.331,28.122-5.663c5.828-6.411,20.787-26.226,26.481-44.876
	c5.426-17.772,12.239-88.296,12.239-88.296S138.003,49.712,137.25,47.526z"/>
<path class="st2" d="M39.399,207.459c4.912,5.403,22.1,5.756,29.577,5.857c7.806-0.117,23.275-0.331,28.122-5.663
	c5.828-6.411,20.787-26.226,26.481-44.876c1.786-5.849,3.722-17.411,5.516-30.293c-0.019,0-0.037,0.005-0.056,0.004
	c-2.852-0.157-19.15,10.844-18.539,13.696c0.611,2.852-6.315-8.72-14.668-10.268c-8.353-1.548-20.78-3.341-23.836,0
	c-0.992,1.084-2.091,1.67-3.185,1.9c-1.095-0.231-2.194-0.816-3.185-1.9c-3.056-3.341-15.483-1.548-23.836,0
	c-8.353,1.548-15.279,13.12-14.668,10.268c0.611-2.852-15.687-13.853-18.539-13.696c-0.167,0.009-0.332-0.036-0.494-0.128
	c1.803,12.958,3.804,24.59,5.759,30.417C19.972,181.038,33.571,201.048,39.399,207.459z M43.622,147.39
	c0,0,17.928,2.002,24.447,1.002h1.481c6.519,1,24.447-1.002,24.447-1.002c4.075,1.019,3.463,6.528,2.852,9.787
	c-0.611,3.26-7.945,8.968-13.853,14.672c-5.908,5.704-8.964,1.53-10.084-1.118c-1.12-2.648,6.621-4.124,4.788-7.791
	c-1.005-2.009-16.775-2.034-17.779-0.025c-1.834,3.667,5.908,5.081,4.788,7.729c-1.12,2.648-4.176,6.717-10.084,1.012
	c-5.908-5.704-13.242-11.216-13.853-14.476C40.159,153.92,39.548,148.408,43.622,147.39z"/>
<path class="st2" d="M92.132,76.714c-2.801,0.407-11.154,2.954-12.223,3.514c-1.07,0.56-3.616,1.324-4.686,1.019
	c-1.052-0.301-6.244-0.01-6.413,0c-0.169-0.01-5.361-0.3-6.413,0c-1.07,0.306-3.616-0.458-4.686-1.019
	c-1.07-0.56-9.422-3.107-12.223-3.514c-2.801-0.407-11.561-1.222-18.335-1.07c-5.736,0.129-17.946,0.497-25.274,1.836
	c0.125,1.327,0.313,2.94,0.513,4.995l1.848-0.669v2.309l-1.758-0.718c0.268,2.733,0.601,6.228,0.977,9.851
	c0.96,1.79,2.779,5.224,3.008,7.057c0.306,2.445,4.314,8.709,4.314,8.709s4.143,5.295,9.949,7.155
	c5.806,1.86,15.44,2.596,23.844,0.929c8.403-1.667,12.114-8.4,12.471-9.215c0.357-0.815,5.248-11.001,5.197-12.122
	c0,0,0.193-2.088-0.361-3.158c-0.554-1.07-0.719-3.158,0.001-3.769c0.719-0.611,1.687-1.578,6.929-1.681
	c5.242,0.102,6.21,1.07,6.928,1.681c0.719,0.611,0.554,2.699,0,3.769s-0.363,3.158-0.363,3.158
	c-0.051,1.12,4.838,11.307,5.195,12.122s4.063,7.548,12.466,9.215c8.403,1.667,18.029,0.931,23.835-0.929
	c5.806-1.86,9.931-7.155,9.931-7.155s3.972-6.264,4.278-8.709c0.201-1.611,1.73-4.749,2.749-6.701
	c0.434-3.981,0.69-7.643,0.995-10.587l-3.585,1.098v-2.309l3.604,1.029c0.22-2.129,0.475-3.997,0.611-5.354
	c-7.35-1.307-19.423-1.709-25.103-1.837C103.578,75.492,94.933,76.307,92.132,76.714z M56.591,100.499
	c-0.306,1.07-1.986,8.913-5.959,11.46c-3.973,2.547-11.103,5.704-23.377,3.922c0,0-12.173-0.764-16.705-13.497
	c0,0-3.158-7.996-2.597-11.969s0.713-6.774,4.329-9.32c0,0,5.806-3.311,17.673-3.158c11.867,0.153,18.335,1.576,18.335,1.576
	s6.723,1.429,8.658,6.878C58.883,91.841,56.896,99.429,56.591,100.499z M129.668,90.414c0.56,3.973-2.597,11.969-2.597,11.969
	c-4.533,12.733-16.705,13.497-16.705,13.497c-12.274,1.783-19.405-1.375-23.377-3.922c-3.973-2.547-5.653-10.39-5.959-11.46
	c-0.306-1.07-2.292-8.658-0.357-14.108c1.935-5.45,8.658-6.878,8.658-6.878s6.468-1.424,18.335-1.576
	c11.867-0.153,17.673,3.158,17.673,3.158C128.955,83.641,129.108,86.442,129.668,90.414z"/>
<linearGradient id="SVGID_2_" gradientUnits="userSpaceOnUse" x1="68.8514" y1="38.0971" x2="68.8514" y2="46.2457">
	<stop  offset="0" style="stop-color:#A6A6A4"/>
	<stop  offset="1" style="stop-color:#FFFFFF"/>
</linearGradient>
<path class="st3" d="M123.17,42.038c-11.17-1.943-22.993-2.526-22.993-2.526s-30.973-0.903-31.326-0.898
	c-0.353-0.005-31.326,0.898-31.326,0.898s-11.823,0.583-22.993,2.526c-11.17,1.943-9.519,2.623-9.422,3.4
	c0.097,0.777-0.097,1.554,5.731,2.914s26.226,4.106,31.002,4.347c3.825,0.193,19.638,1.693,25.78,1.693h2.456
	c6.142,0,21.955-1.5,25.78-1.693c4.776-0.241,25.174-2.488,31.002-3.848c5.828-1.36,5.634-2.386,5.731-3.163
	C132.69,44.91,134.341,43.981,123.17,42.038z M95.845,52.053c-3.867,0.195-19.596,1.338-25.765,1.338h-2.456
	c-6.17,0-21.899-1.142-25.765-1.337c-4.926-0.249-24.305-2.431-30.521-3.753c0.927-0.182,1.986-0.444,3.196-0.655
	c11.17-1.943,22.993-2.556,22.993-2.556s30.973-0.912,31.326-0.908c0.353-0.005,31.326,0.906,31.326,0.906S112,45.7,123.17,47.643
	c1.27,0.221,2.373,0.624,3.333,0.815C120.376,49.795,100.663,51.81,95.845,52.053z"/>
<path class="st2" d="M67.623,53.391h2.456c6.17,0,21.898-1.143,25.765-1.338c4.818-0.243,24.531-2.26,30.658-3.598
	c-0.96-0.191-2.062-0.528-3.333-0.749c-11.17-1.943-22.993-2.592-22.993-2.592s-30.973-0.936-31.326-0.932
	c-0.353-0.005-31.326,0.882-31.326,0.882s-11.823,0.575-22.993,2.517c-1.21,0.21-2.269,0.402-3.196,0.584
	c6.217,1.322,25.596,3.639,30.521,3.888C45.725,52.251,61.453,53.391,67.623,53.391z"/>
<path class="st4" d="M92.24,39.278v5.565c4,0.136,7.804,0.239,7.804,0.239s3.196,0.134,6.196,0.475v-5.583
	c-3-0.333-6.196-0.461-6.196-0.461S96.24,39.412,92.24,39.278z"/>
<path class="st5" d="M123.17,42.038c-11.17-1.943-22.993-2.525-22.993-2.525s-30.973-0.903-31.326-0.898
	c-0.353-0.005-31.326,0.898-31.326,0.898s-11.823,0.583-22.993,2.525c-11.17,1.943-9.519,2.623-9.422,3.4
	c0.097,0.777-0.097,1.554,5.731,2.914s26.226,3.856,31.002,4.097c3.825,0.193,19.638,1.443,25.78,1.443h2.456
	c6.142,0,21.955-1.25,25.78-1.443c4.776-0.241,25.174-2.363,31.002-3.723c5.828-1.36,5.634-2.324,5.731-3.101
	S134.341,43.981,123.17,42.038z"/>
<radialGradient id="SVGID_3_" cx="140.4904" cy="66.6997" r="76.975" gradientUnits="userSpaceOnUse">
	<stop  offset="0" style="stop-color:#E6E6E5"/>
	<stop  offset="1" style="stop-color:#FFFFFF"/>
</radialGradient>
<path class="st6" d="M137.408,54.957c0,0-0.194,1.943,3.885,1.943s13.016,0.777,17.193,2.04s8.742,3.205,12.919,9.034
	c4.177,5.828,2.525,16.61,2.525,16.61s-1.166,7.868-7.771,15.056s-10.976,10.976-16.513,14.57s-16.707,9.713-16.707,9.713
	s-1.235,1.17-2.9,1.556s-2.54-5.442-1.277-11.27c0,0,0.194-1.068,1.068-1.068c0.874,0,1.748,0,4.08-0.583
	c2.331-0.583,12.433-5.731,13.793-6.702c1.36-0.971,6.605-4.08,13.599-12.725s5.051-16.416,5.051-16.416s-1.457-6.508-9.422-9.519
	c0,0-7.423-2.125-14.085,0.389c0,0-1.748,0.971-3.788,0.971s-3.14,4.74-3.14,4.74s-1.814,1.185-1.329-4.158
	c0.486-5.342,0.681-13.018,1.748-16.027S137.408,54.957,137.408,54.957z"/>
<g>
	<path class="st2" d="M52.318,116.929c0,0-0.504,0.758-1.259,1.895c-0.362,0.571-0.783,1.233-1.187,1.957
		c-0.197,0.364-0.39,0.744-0.566,1.132c-0.18,0.386-0.345,0.788-0.445,1.192c-0.061,0.201-0.125,0.401-0.145,0.6
		c-0.035,0.2-0.072,0.399-0.055,0.588c-0.004,0.194-0.002,0.383,0.048,0.555l0.049,0.267l0.107,0.269
		c0.168,0.388,0.292,0.804,0.481,1.09c0.086,0.159,0.169,0.314,0.249,0.463c0.101,0.141,0.199,0.278,0.293,0.409
		c0.176,0.279,0.405,0.467,0.579,0.676c0.204,0.166,0.373,0.341,0.538,0.441c0.317,0.234,0.536,0.315,0.536,0.315
		s-0.059,0.001-0.165-0.02c-0.109-0.015-0.267-0.046-0.46-0.117c-0.201-0.057-0.42-0.178-0.679-0.313
		c-0.229-0.169-0.534-0.328-0.773-0.595c-0.13-0.126-0.264-0.258-0.404-0.394c-0.117-0.16-0.238-0.326-0.363-0.496
		c-0.277-0.348-0.439-0.711-0.633-1.093l-0.155-0.319l-0.106-0.367c-0.089-0.249-0.108-0.502-0.107-0.757
		c-0.024-0.26,0.013-0.506,0.049-0.754c0.023-0.253,0.088-0.489,0.156-0.725c0.133-0.473,0.328-0.913,0.536-1.331
		c0.199-0.425,0.455-0.802,0.687-1.174c0.489-0.727,1.013-1.348,1.487-1.853C51.557,117.461,52.318,116.929,52.318,116.929z"/>
</g>
<path class="st5" d="M59.7,129.848c0,0-3.885-3.788-7.382-2.331c0,0-0.971,1.36,1.846,0.389S57.272,128.585,59.7,129.848z"/>
<g>
	<path class="st2" d="M84.103,116.929c0,0,0.761,0.531,1.709,1.542c0.474,0.505,0.998,1.125,1.487,1.853
		c0.232,0.372,0.488,0.749,0.687,1.174c0.207,0.418,0.403,0.858,0.536,1.331c0.067,0.236,0.133,0.471,0.156,0.725
		c0.036,0.248,0.073,0.494,0.049,0.754c0.001,0.255-0.019,0.509-0.107,0.757l-0.106,0.367l-0.155,0.319
		c-0.194,0.383-0.355,0.746-0.633,1.093c-0.125,0.17-0.246,0.336-0.363,0.496c-0.14,0.136-0.275,0.268-0.404,0.394
		c-0.239,0.267-0.544,0.426-0.773,0.595c-0.259,0.135-0.478,0.256-0.679,0.313c-0.193,0.071-0.352,0.102-0.46,0.117
		c-0.106,0.022-0.165,0.02-0.165,0.02s0.219-0.081,0.536-0.315c0.165-0.1,0.335-0.275,0.538-0.441
		c0.174-0.209,0.402-0.397,0.579-0.676c0.094-0.131,0.192-0.267,0.293-0.409c0.08-0.15,0.164-0.304,0.249-0.463
		c0.188-0.286,0.312-0.703,0.481-1.09l0.108-0.269l0.049-0.267c0.05-0.172,0.051-0.362,0.048-0.555
		c0.018-0.189-0.02-0.389-0.055-0.588c-0.019-0.199-0.084-0.399-0.145-0.6c-0.1-0.404-0.266-0.806-0.445-1.192
		c-0.176-0.388-0.369-0.769-0.566-1.132c-0.404-0.725-0.824-1.386-1.187-1.957C84.607,117.687,84.103,116.929,84.103,116.929z"/>
</g>
<path class="st5" d="M76.721,129.848c0,0,3.885-3.788,7.382-2.331c0,0,0.971,1.36-1.846,0.389
	C79.441,126.934,79.149,128.585,76.721,129.848z"/>
<g>
	<path class="st2" d="M65.358,131.159c0,0,0.474,0.227,1.162,0.41c0.349,0.079,0.743,0.174,1.174,0.203
		c0.211,0.04,0.437,0.008,0.658,0.034c0.225-0.009,0.453-0.006,0.68-0.034c0.227-0.031,0.459-0.024,0.682-0.082
		c0.221-0.058,0.452-0.054,0.664-0.123c0.212-0.06,0.426-0.095,0.627-0.143c0.195-0.064,0.387-0.113,0.566-0.158
		c0.361-0.083,0.65-0.198,0.87-0.246c0.217-0.056,0.348-0.081,0.348-0.081s-0.086,0.096-0.249,0.253
		c-0.169,0.147-0.394,0.394-0.726,0.593c-0.319,0.225-0.719,0.448-1.182,0.624c-0.226,0.1-0.478,0.162-0.731,0.227
		c-0.251,0.074-0.523,0.087-0.788,0.13c-0.537,0.031-1.084,0.006-1.574-0.132c-0.494-0.112-0.923-0.333-1.257-0.548
		C65.606,131.645,65.358,131.159,65.358,131.159z"/>
</g>
<path class="st7" d="M39.567,1.466c0,0-0.779,0.472-2.238,1.357c-1.453,0.89-3.595,2.165-6.229,3.825
	c-1.312,0.837-2.755,1.753-4.264,2.779c-0.756,0.511-1.528,1.045-2.302,1.611c-0.777,0.558-1.555,1.149-2.308,1.761
	c-0.755,0.607-1.479,1.253-2.112,1.89c-0.166,0.159-0.299,0.318-0.449,0.476c-0.132,0.157-0.272,0.314-0.383,0.465
	c-0.238,0.305-0.399,0.586-0.488,0.799c-0.093,0.212-0.028,0.341,0.135,0.184c0.078-0.078,0.192-0.248,0.264-0.509
	c0.009-0.054,0.039-0.138,0.053-0.215c0.016-0.079,0.025-0.158,0.027-0.238c0.019-0.169,0.021-0.358-0.01-0.534
	c-0.002-0.177-0.06-0.365-0.103-0.524c-0.018-0.078-0.042-0.155-0.073-0.23c-0.031-0.076-0.073-0.151-0.086-0.204
	c-0.021-0.059-0.048-0.116-0.079-0.171c-0.016-0.028-0.032-0.055-0.05-0.081c-0.018-0.027-0.016-0.041-0.027-0.062
	c-0.015-0.039-0.034-0.076-0.057-0.111c-0.017-0.034-0.061-0.075-0.053-0.091c-0.007-0.043-0.024-0.083-0.046-0.114
	c0.02-0.017,0.035,0.925,0.045,0.915c0.004-0.002,0.003,0.95,0.009,0.95h0.034l0.064-0.953l0.06-0.471l0.096-0.223
	c0.515,0.1,1.468,0.184,2.551,0.332c0.267,0.039,0.565,0.01,0.845,0.047l0.107-0.016l0.053-0.008
	c0.181,0.039-0.189-0.053-0.124-0.041l0.274,0.027l0.55,0.06c0.733,0.088,1.473,0.175,2.219,0.264
	c0.373,0.045,0.748,0.089,1.124,0.134l0.565,0.067l0.284,0.034l0.261,0.019c0.689,0.053,1.384,0.106,2.085,0.16
	c0.696,0.055,1.397,0.111,2.104,0.167c0.342,0.035,0.726,0.054,1.102,0.077c0.376,0.023,0.754,0.046,1.133,0.068
	c6.042,0.394,12.514,0.642,19.254,0.783c6.738,0.145,13.737,0.224,20.853,0.239c1.779,0.007,3.565,0.019,5.353,0.007
	c1.789-0.003,3.583,0.001,5.365-0.017c0.877-0.009,1.754-0.018,2.632-0.027c0.844-0.032,1.688-0.064,2.533-0.096
	c1.958-0.059,3.91-0.109,5.883-0.102c1.972,0.001,3.961,0.031,5.991,0.103c2.035,0.082,4.102,0.212,6.314,0.443
	c1.113,0.122,2.263,0.26,3.525,0.486c1.278,0.237,2.603,0.485,4.486,1.117l0.354,0.124l0.177,0.063l0.206,0.08
	c0.276,0.109,0.55,0.221,0.821,0.338c0.062,0.026,0.146,0.065,0.229,0.104l0.246,0.117l0.487,0.242
	c0.285,0.14,0.732,0.4,1.109,0.638l0.288,0.186c0.103,0.069,0.173,0.111,0.301,0.205c0.241,0.174,0.476,0.355,0.706,0.542
	l0.339,0.284c0.118,0.104,0.206,0.176,0.344,0.31c0.274,0.265,0.538,0.543,0.788,0.829c0.125,0.143,0.246,0.289,0.363,0.436
	c0.111,0.136,0.234,0.3,0.373,0.507c0.262,0.386,0.502,0.789,0.714,1.201c0.106,0.208,0.204,0.409,0.298,0.626
	c0.097,0.237,0.186,0.478,0.266,0.723c0.16,0.489,0.285,0.99,0.371,1.489c0.083,0.495,0.109,0.977,0.113,1.473
	c0,0.246-0.008,0.493-0.025,0.738c-0.017,0.236-0.042,0.511-0.076,0.694c-0.067,0.405-0.157,0.81-0.27,1.209
	c-0.056,0.2-0.118,0.397-0.186,0.593c-0.072,0.214-0.133,0.362-0.194,0.501c-0.126,0.292-0.264,0.581-0.413,0.865
	c-0.075,0.142-0.152,0.283-0.232,0.422c-0.08,0.14-0.168,0.286-0.226,0.37c-0.264,0.397-0.55,0.786-0.853,1.161
	c-0.082,0.103-0.144,0.173-0.202,0.236l-0.184,0.202l-0.377,0.396l-0.388,0.386l-0.321,0.284c-0.216,0.188-0.435,0.373-0.657,0.554
	c-0.207,0.164-0.38,0.287-0.574,0.43c-0.187,0.135-0.386,0.28-0.566,0.402l-0.503,0.324l-0.506,0.318l-0.458,0.263
	c-0.632,0.368-1.174,0.636-1.744,0.927c-0.53,0.251-1.084,0.521-1.584,0.734l-0.767,0.335l-0.743,0.301
	c-1.975,0.79-3.833,1.431-5.663,2.029l-0.684,0.221l-0.557,0.181l-0.319,0.09c-0.425,0.12-0.849,0.241-1.273,0.361
	c-0.424,0.12-0.846,0.24-1.269,0.36l-0.316,0.09l-0.376,0.096l-0.758,0.192c-1.005,0.251-2.027,0.513-3.009,0.731
	c-0.948,0.19-1.892,0.379-2.833,0.567l-0.704,0.14L94.7,46.406c-0.467,0.076-0.933,0.153-1.398,0.229
	c-0.931,0.148-1.856,0.3-2.776,0.406c-0.918,0.116-1.832,0.231-2.742,0.346c-0.907,0.084-1.809,0.168-2.707,0.251
	c-0.897,0.09-1.786,0.147-2.669,0.202c-0.882,0.055-1.761,0.119-2.631,0.15c-1.74,0.055-3.454,0.138-5.138,0.13
	c-6.741,0.063-13.018-0.352-18.741-0.975c-5.725-0.618-10.893-1.473-15.427-2.369c-4.533-0.9-8.431-1.841-11.609-2.722
	c-1.591-0.427-3.001-0.843-4.223-1.218c-1.223-0.364-2.254-0.713-3.09-0.99c-0.836-0.275-1.47-0.514-1.899-0.666
	c-0.43-0.161-0.653-0.245-0.653-0.245l0.347-1.527c0,0,0.935-0.02,2.687-0.059c0.875-0.021,1.955-0.046,3.224-0.076
	c1.264-0.034,2.716-0.074,4.343-0.119c3.247-0.108,7.172-0.245,11.638-0.468c4.464-0.225,9.471-0.521,14.861-0.999
	c5.387-0.475,11.166-1.097,17.112-2.043c1.491-0.224,2.98-0.494,4.488-0.758c0.753-0.133,1.498-0.299,2.254-0.439
	c0.755-0.144,1.513-0.289,2.261-0.465c3.026-0.625,6.016-1.423,8.984-2.28c0.733-0.226,1.468-0.454,2.207-0.682
	c0.668-0.232,1.339-0.466,2.012-0.7l0.501-0.171l0.254-0.087l0.305-0.117c0.407-0.156,0.815-0.312,1.223-0.468
	c0.408-0.156,0.818-0.313,1.227-0.47l0.307-0.118c0.22-0.077-0.213,0.072-0.144,0.046l0.069-0.029l0.138-0.058l0.556-0.23
	c1.477-0.61,2.921-1.243,4.19-1.874l0.472-0.235l0.435-0.228c0.307-0.153,0.534-0.295,0.797-0.438
	c0.205-0.131,0.448-0.27,0.565-0.364l0.11-0.075l0.043-0.045c0.015-0.014,0.03-0.027,0.046-0.039
	c-0.001-0.004-0.03,0.007-0.041,0.012c-0.021,0.011-0.015,0.008-0.054,0.034c-0.059,0.039-0.116,0.081-0.169,0.127
	c-0.026,0.023-0.052,0.046-0.077,0.071c-0.057,0.048-0.114,0.1-0.168,0.152c-0.054,0.053-0.107,0.107-0.157,0.163l-0.173,0.199
	c-0.178,0.204-0.34,0.422-0.48,0.649l-0.147,0.235c-0.057,0.093-0.111,0.187-0.162,0.282c-0.103,0.191-0.194,0.387-0.273,0.586
	l-0.138,0.357c-0.054,0.146-0.104,0.294-0.147,0.444c-0.087,0.3-0.152,0.606-0.193,0.911c-0.015,0.134-0.051,0.357-0.065,0.543
	c-0.017,0.194-0.025,0.389-0.025,0.585c-0.001,0.395,0.041,0.773,0.101,1.169c0.058,0.4,0.155,0.803,0.287,1.193
	c0.066,0.195,0.141,0.387,0.224,0.574c0.071,0.17,0.14,0.328,0.22,0.49c0.159,0.321,0.346,0.634,0.555,0.93l0.278,0.38
	c0.081,0.108,0.166,0.214,0.255,0.317c0.177,0.207,0.369,0.406,0.571,0.592l0.219,0.205c0.069,0.062,0.139,0.123,0.211,0.183
	c0.144,0.119,0.294,0.232,0.449,0.338c0.087,0.058,0.105,0.076,0.162,0.115l0.146,0.099c0.187,0.126,0.45,0.261,0.529,0.311
	c0.06,0.034,0.122,0.066,0.185,0.096l0.095,0.044c0.033,0.015,0.067,0.029,0.076,0.035c0.062,0.033,0.126,0.063,0.193,0.088
	l0.049,0.018l0.015,0.01l0.032,0.017c0.108,0.041-0.03,0.016-0.167-0.006l-0.304-0.044l-0.38-0.049
	c-0.551-0.063-1.229-0.135-1.952-0.184c-1.459-0.103-3.087-0.149-4.751-0.168c-1.669-0.025-3.386-0.017-5.119,0.017
	c-1.732,0.04-3.484,0.074-5.224,0.145l-1.297,0.055l-0.635,0.031l-0.299,0.016l-0.064,0.004l-0.519,0.018l-0.196,0.004
	c-1.009,0.02-1.951,0.02-2.908,0.02c-0.951-0.003-1.9-0.005-2.849-0.008c-0.947-0.004-1.891-0.01-2.832-0.033
	c-1.884-0.031-3.758-0.089-5.626-0.14c-7.467-0.26-14.814-0.783-21.93-1.566c-7.114-0.779-14.002-1.859-20.533-3.27
	c-0.407-0.086-0.813-0.173-1.218-0.258c-0.405-0.086-0.801-0.166-1.228-0.273c-0.835-0.207-1.665-0.413-2.488-0.617
	c-0.819-0.206-1.631-0.41-2.437-0.612l-0.299-0.078l-0.27-0.083l-0.539-0.166c-0.359-0.11-0.716-0.22-1.072-0.329
	c-0.711-0.219-1.417-0.435-2.116-0.65l-0.522-0.165l-0.26-0.082c0.02,0.003-0.394-0.093-0.256-0.065l-0.078-0.026l-0.157-0.053
	c-0.42-0.144-0.826-0.275-1.248-0.429c-1.677-0.608-3.393-1.309-5.287-2.448c-0.119-0.073-0.229-0.135-0.354-0.217l-0.372-0.249
	l-0.366-0.252l-0.181-0.127l-0.194-0.148c-0.259-0.201-0.512-0.406-0.76-0.612c-0.269-0.241-0.529-0.494-0.781-0.748
	c-0.121-0.117-0.262-0.283-0.389-0.431c-0.13-0.152-0.256-0.306-0.379-0.461c-0.062-0.08-0.12-0.149-0.183-0.239l-0.185-0.272
	c-0.121-0.182-0.237-0.367-0.347-0.553c-0.111-0.176-0.217-0.39-0.316-0.602c-0.099-0.211-0.192-0.425-0.278-0.639
	c-0.169-0.434-0.29-0.917-0.389-1.376c-0.075-0.469-0.122-0.952-0.123-1.413c0.007-0.227,0.02-0.454,0.04-0.679
	c0.021-0.224,0.044-0.455,0.09-0.653c0.159-0.842,0.44-1.578,0.757-2.193c0.319-0.625,0.67-1.129,1.025-1.587
	c0.175-0.213,0.354-0.425,0.534-0.629c0.177-0.18,0.353-0.36,0.529-0.539c0.7-0.668,1.388-1.209,2.05-1.656
	c0.333-0.231,0.656-0.431,0.979-0.633c0.319-0.186,0.639-0.384,0.95-0.549c1.248-0.69,2.445-1.223,3.59-1.702
	c2.295-0.939,4.419-1.617,6.388-2.185c1.97-0.558,3.775-1.004,5.418-1.357c1.643-0.349,3.101-0.647,4.386-0.857
	c0.64-0.106,1.233-0.204,1.776-0.294c0.546-0.078,1.042-0.149,1.486-0.212c0.887-0.126,1.574-0.199,2.036-0.25
	C38.73,0.02,38.976,0,38.976,0L39.567,1.466z"/>
<linearGradient id="SVGID_4_" gradientUnits="userSpaceOnUse" x1="22.7302" y1="63.4574" x2="22.7302" y2="199.8467">
	<stop  offset="0" style="stop-color:#FFFFFF"/>
	<stop  offset="1" style="stop-color:#FFFFFF;stop-opacity:0.01"/>
</linearGradient>
<path class="st8" d="M41.419,202.429c0,0-16.172-23.165-20.98-33.656c-4.808-10.49-10.569-51.844-10.569-51.844
	S4.042,59.522,4.042,54.083c8.159,1.748,6.799,3.691,28.169,4.857C32.211,58.94,31.394,160.002,41.419,202.429z"/>
<path class="st9" d="M66.24,98.959v22.438c0,0-2.672,1.457-6.589,0c-3.917-1.457-5.949-2.561-5.949-3.369
	C53.701,117.221,66.24,98.959,66.24,98.959z"/>
<path class="st10" d="M149.938,59.134c0,0,20.885,1.961,21.564,14.764c0.674,12.697-1.943,16.124-1.943,16.124
	S177.524,65.351,149.938,59.134z"/>
</svg>
