<?xml version="1.0" encoding="utf-8"?>
<!-- Generator: Adobe Illustrator 18.1.0, SVG Export Plug-In . SVG Version: 6.00 Build 0)  -->
<svg version="1.1" xmlns="http://www.w3.org/2000/svg" xmlns:xlink="http://www.w3.org/1999/xlink" x="0px" y="0px"
	 viewBox="0 0 193.8 206.5" style="enable-background:new 0 0 193.8 206.5;" xml:space="preserve">
<style type="text/css">
	.st0{fill:#F6F6E2;}
	.st1{fill:#231F20;}
	.st2{fill:#FFFFFF;}
	.st3{fill:#CC2127;}
</style>
<g id="Layer_2">
	<rect class="st0" width="193.5" height="206.5"/>
	<path class="st1" d="M96.9,15.6c-48.4,0-87.7,39.2-87.7,87.7c0,48.4,39.2,87.7,87.7,87.7s87.7-39.2,87.7-87.7
		C184.5,54.8,145.3,15.6,96.9,15.6z M96.9,110.6c-4.1,0-7.3-3.3-7.3-7.3c0-4.1,3.3-7.3,7.3-7.3s7.3,3.3,7.3,7.3
		C104.2,107.3,100.9,110.6,96.9,110.6z"/>
	<g id="Layer_3">
	</g>
	<path class="st2" d="M97.2,20.6c-13.4,0-26,3.2-37.1,8.9c10.7-5.1,22.6-7.9,35.1-7.9c45.3,0,82,36.7,82,82
		c0,31.9-18.2,59.5-44.9,73.1c27.7-13.2,46.9-41.4,46.9-74.1C179.2,57.3,142.5,20.6,97.2,20.6z"/>
	<path class="st3" d="M96.9,76.9c-14.5,0-26.3,11.8-26.3,26.3c0,14.5,11.8,26.3,26.3,26.3s26.3-11.8,26.3-26.3
		C123.2,88.7,111.4,76.9,96.9,76.9z M96.9,110.6c-4.1,0-7.3-3.3-7.3-7.3c0-4.1,3.3-7.3,7.3-7.3s7.3,3.3,7.3,7.3
		C104.2,107.3,100.9,110.6,96.9,110.6z"/>
</g>
<g id="Layer_4">
</g>
</svg>
