<?xml version="1.0" encoding="utf-8"?>
<!-- Generator: Adobe Illustrator 17.0.0, SVG Export Plug-In . SVG Version: 6.00 Build 0)  -->
<!DOCTYPE svg PUBLIC "-//W3C//DTD SVG 1.1//EN" "http://www.w3.org/Graphics/SVG/1.1/DTD/svg11.dtd">
<svg version="1.1" xmlns="http://www.w3.org/2000/svg" xmlns:xlink="http://www.w3.org/1999/xlink" x="0px" y="0px"
	 width="531.784px" height="474.255px" viewBox="0 0 531.784 474.255" style="enable-background:new 0 0 531.784 474.255;"
	 xml:space="preserve">
<style type="text/css">
	.st0{fill:#892718;}
	.st1{fill:url(#SVGID_1_);}
	.st2{fill:url(#SVGID_2_);}
	.st3{opacity:0.67;fill:#FFFFFF;}
	.st4{fill:none;stroke:#000000;stroke-miterlimit:10;}
	.st5{fill:url(#SVGID_3_);}
	.st6{opacity:0.6;fill:#FFFFFF;}
	.st7{opacity:0.57;fill:url(#SVGID_4_);}
	.st8{opacity:0.5;fill:#F2F2F2;}
	.st9{fill:#FFFFFF;}
</style>
<g id="Layer_2">
</g>
<g id="Layer_1">
	<path id="cup_shadow" class="st0" d="M443.946,314.465c1.453-1.653-0.696-2.33-3.097-2.819c-2.4-0.488-9.16-1.041-12.546-1.203
		s-1.585-0.65-1.585-0.65s0.774-0.234,1.367-0.439c2.566-0.741,4.446-1.306,4.773-1.464c1.22-0.588,0.436-1.099,0.436-1.099
		s-2.389-0.717-6.609-1.178c-4.22-0.46-10.492-1.062-12.788-1.215c-2.295-0.153-18.815-1.202-18.815-1.202
		s-8.457-0.415-11.286-0.576l-11.075-0.494c0,0-17.509-0.579-20.05-0.658c-2.541-0.079-10.457-0.156-16.153-0.17
		c-5.695-0.014-11.488,0.312-11.488,0.312s-3.469,0.308-5.938,0.836c-2.469,0.528-21.55,6.937-21.55,6.937
		s-54.392,18.291-64.356,23.022c-10.329,4.904-15.931,10.551-16.505,12.419c-0.484,1.574,13.113,3.722,19.232,4.045
		c6.577,0.28,19.963-0.536,28.484-1.704c10.247-1.405,39.384-5.868,59.849-10.402c7.565-1.676,22.001-5.369,36.839-9.263l0,0
		c1.708-0.032,3.72-0.282,3.72-0.282s14.434-1.118,22.062-1.816c7.628-0.697,14.452-1.491,26-3.063
		c11.548-1.572,19.155-3.534,19.155-3.534S442.494,316.118,443.946,314.465z M414.331,320.485
		c-13.1,1.929-20.076,2.514-22.024,2.708c-1.948,0.194-14.676,1.107-17.103,1.163c-1.044,0.024-1.763,0.031-2.312,0.029
		c19.149-5.079,36.029-9.671,36.029-9.671s0.4-0.11,1.085-0.298h0c0,0,4.913-1.166,6.606-1.085c1.693,0.081,3.963-0.098,3.963-0.098
		c7.649-0.377,12.016,0.46,12.016,0.46c4.068,1.085-0.215,2.804-0.215,2.804S427.431,318.556,414.331,320.485z"/>
	<linearGradient id="SVGID_1_" gradientUnits="userSpaceOnUse" x1="243.4643" y1="348.9244" x2="243.4643" y2="173.2514">
		<stop  offset="0" style="stop-color:#A6A6A4"/>
		<stop  offset="1" style="stop-color:#FFFFFF"/>
	</linearGradient>
	<path class="st1" d="M312.01,183.135c-0.753-2.186-3.327-3.788-3.327-3.788s-4.954-2.04-10.928-2.914s-14.57-1.894-17.484-2.04
		c-2.914-0.146-23.71-1.02-23.71-1.02s-10.226-0.035-13.723-0.121l-13.222,0.121c0,0-20.21,0.874-23.124,1.02
		c-2.914,0.146-11.416,1.166-17.39,2.04c-5.974,0.874-10.881,2.914-10.881,2.914s-2.551,1.603-3.303,3.788
		c-0.753,2.186,1.445,26.955,1.445,26.955s6.335,70.678,12.245,88.296c6.125,18.261,19.724,38.271,25.552,44.682
		c4.912,5.403,22.1,5.756,29.577,5.857c7.806-0.117,23.275-0.331,28.122-5.663c5.828-6.411,20.787-26.226,26.481-44.876
		c5.426-17.772,12.239-88.296,12.239-88.296S312.763,185.32,312.01,183.135z"/>
	<path d="M214.159,343.067c4.912,5.403,22.1,5.756,29.577,5.857c7.806-0.117,23.275-0.331,28.122-5.663
		c5.828-6.411,20.787-26.226,26.481-44.876c1.786-5.849,3.722-17.411,5.516-30.293c-0.019,0-0.037,0.005-0.056,0.004
		c-2.852-0.157-19.15,10.844-18.539,13.696c0.611,2.852-6.315-8.72-14.668-10.268c-8.353-1.548-20.78-3.341-23.836,0
		c-0.992,1.084-2.091,1.67-3.185,1.9c-1.095-0.231-2.194-0.816-3.185-1.9c-3.056-3.341-15.483-1.548-23.836,0
		c-8.353,1.548-15.279,13.12-14.668,10.268c0.611-2.852-15.687-13.853-18.539-13.696c-0.167,0.009-0.332-0.036-0.494-0.128
		c1.803,12.958,3.804,24.59,5.759,30.417C194.732,316.647,208.331,336.656,214.159,343.067z M218.383,282.95
		c0,0,17.928,1.953,24.447,0.953h1.481c6.519,1,24.447-0.953,24.447-0.953c4.074,1.019,3.463,6.552,2.852,9.811
		s-7.945,8.98-13.853,14.685c-5.908,5.704-8.964,1.536-10.084-1.112s6.621-4.121,4.788-7.788
		c-1.005-2.009-16.775-2.033-17.779-0.023c-1.834,3.667,5.908,5.081,4.788,7.73c-1.12,2.648-4.176,6.717-10.084,1.013
		c-5.908-5.704-13.242-11.24-13.853-14.5C214.919,289.504,214.308,283.968,218.383,282.95z"/>
	<path d="M266.892,212.323c-2.801,0.407-11.154,2.954-12.223,3.514c-1.07,0.56-3.616,1.324-4.686,1.019
		c-1.052-0.301-6.244-0.01-6.413,0c-0.169-0.01-5.361-0.3-6.413,0c-1.07,0.306-3.616-0.458-4.686-1.019
		c-1.07-0.56-9.422-3.107-12.223-3.514c-2.801-0.407-11.561-1.222-18.335-1.07c-5.736,0.129-17.946,0.497-25.274,1.836
		c0.125,1.327,0.534,2.94,0.734,4.995l2.069-0.669v2.309l-1.979-0.718c0.268,2.733,0.491,6.228,0.866,9.851
		c0.96,1.79,2.723,5.224,2.953,7.057c0.306,2.445,4.287,8.709,4.287,8.709s4.129,5.295,9.935,7.155
		c5.806,1.86,15.433,2.596,23.837,0.929c8.403-1.667,12.111-8.4,12.468-9.215s5.246-11.001,5.196-12.122
		c0,0,0.192-2.088-0.362-3.158c-0.554-1.07-0.719-3.158,0-3.769c0.719-0.611,1.686-1.578,6.928-1.681
		c5.242,0.102,6.209,1.07,6.928,1.681c0.719,0.611,0.554,2.699,0,3.769s-0.363,3.158-0.363,3.158
		c-0.051,1.12,4.838,11.307,5.195,12.122s4.063,7.548,12.466,9.215c8.403,1.667,18.029,0.931,23.835-0.929
		c5.806-1.86,9.931-7.155,9.931-7.155s3.972-6.264,4.278-8.709c0.201-1.611,1.73-4.749,2.749-6.701
		c0.434-3.981,0.911-7.643,1.216-10.587l-3.364,1.098v-2.309l3.383,1.029c0.22-2.129,0.364-3.997,0.5-5.354
		c-7.35-1.307-19.478-1.709-25.159-1.837C278.394,211.1,269.694,211.915,266.892,212.323z M231.351,236.107
		c-0.306,1.07-1.986,8.913-5.959,11.459c-3.973,2.547-11.103,5.704-23.377,3.922c0,0-12.173-0.764-16.705-13.497
		c0,0-3.158-7.996-2.597-11.969c0.56-3.973,0.713-6.774,4.329-9.32c0,0,5.806-3.311,17.673-3.158
		c11.867,0.153,18.335,1.576,18.335,1.576s6.723,1.429,8.658,6.878C233.643,227.449,231.657,235.038,231.351,236.107z
		 M304.429,226.023c0.56,3.973-2.597,11.969-2.597,11.969c-4.533,12.733-16.705,13.497-16.705,13.497
		c-12.274,1.783-19.405-1.375-23.377-3.922c-3.973-2.547-5.653-10.39-5.959-11.459c-0.306-1.07-2.292-8.658-0.357-14.108
		c1.935-5.45,8.658-6.878,8.658-6.878s6.468-1.424,18.335-1.576c11.867-0.153,17.673,3.158,17.673,3.158
		C303.716,219.249,303.868,222.05,304.429,226.023z"/>
	<linearGradient id="SVGID_2_" gradientUnits="userSpaceOnUse" x1="243.6118" y1="173.7089" x2="243.6118" y2="181.8073">
		<stop  offset="0" style="stop-color:#A6A6A4"/>
		<stop  offset="1" style="stop-color:#FFFFFF"/>
	</linearGradient>
	<path class="st2" d="M297.931,177.647c-11.17-1.943-22.993-2.525-22.993-2.525s-30.973-0.903-31.326-0.898
		c-0.353-0.005-31.326,0.898-31.326,0.898s-11.823,0.583-22.993,2.525c-11.17,1.943-9.519,2.623-9.422,3.4
		c0.097,0.777-0.097,1.554,5.731,2.914s26.226,4.057,31.002,4.298c3.825,0.193,19.638,1.644,25.78,1.644h2.456
		c6.142,0,21.955-1.451,25.78-1.644c4.776-0.241,25.174-2.464,31.002-3.824c5.828-1.36,5.634-2.374,5.731-3.151
		C307.45,180.507,309.101,179.589,297.931,177.647z M270.605,187.613c-3.867,0.195-19.596,1.289-25.765,1.289h-2.456
		c-6.17,0-21.899-1.093-25.765-1.288c-4.926-0.249-24.305-2.406-30.521-3.729c0.927-0.182,1.986-0.432,3.196-0.642
		c11.17-1.943,22.993-2.549,22.993-2.549s30.973-0.909,31.326-0.904c0.353-0.005,31.326,0.907,31.326,0.907
		s11.823,0.611,22.993,2.554c1.27,0.221,2.373,0.6,3.333,0.791C295.136,185.379,275.423,187.37,270.605,187.613z"/>
	<path d="M242.384,188.903h2.456c6.17,0,21.898-1.094,25.765-1.289c4.818-0.243,24.531-2.236,30.658-3.574
		c-0.96-0.191-2.062-0.516-3.333-0.737c-11.17-1.943-22.993-2.585-22.993-2.585s-30.973-0.933-31.326-0.929
		c-0.353-0.005-31.326,0.884-31.326,0.884s-11.823,0.575-22.993,2.518c-1.21,0.21-2.269,0.402-3.196,0.585
		c6.217,1.322,25.596,3.591,30.521,3.84C220.485,187.81,236.214,188.903,242.384,188.903z"/>
	<path class="st3" d="M267.442,174.886v5.565c4,0.136,7.804,0.239,7.804,0.239s3.196,0.134,6.196,0.475v-5.583
		c-3-0.333-6.196-0.461-6.196-0.461S271.442,175.02,267.442,174.886z"/>
	<path class="st4" d="M297.931,177.647c-11.17-1.943-22.993-2.525-22.993-2.525s-30.973-0.903-31.326-0.898
		c-0.353-0.005-31.326,0.898-31.326,0.898s-11.823,0.583-22.993,2.525c-11.171,1.943-9.519,2.623-9.422,3.4
		c0.097,0.777-0.097,1.554,5.731,2.914c5.828,1.36,26.226,3.807,31.002,4.048c3.825,0.193,19.638,1.394,25.78,1.394h2.456
		c6.142,0,21.955-1.201,25.78-1.394c4.776-0.241,25.174-2.339,31.002-3.699s5.634-2.312,5.731-3.089
		S309.101,179.589,297.931,177.647z"/>
	<radialGradient id="SVGID_3_" cx="315.2508" cy="202.3083" r="76.975" gradientUnits="userSpaceOnUse">
		<stop  offset="0" style="stop-color:#E6E6E6"/>
		<stop  offset="1" style="stop-color:#FFFFFF"/>
	</radialGradient>
	<path class="st5" d="M312.168,190.566c0,0-0.194,1.943,3.885,1.943c4.08,0,13.016,0.777,17.193,2.04
		c4.177,1.263,8.742,3.205,12.919,9.034c4.177,5.828,2.526,16.61,2.526,16.61s-1.166,7.868-7.771,15.056
		s-10.976,10.976-16.513,14.57c-5.537,3.594-16.707,9.713-16.707,9.713s-1.235,1.17-2.9,1.557c-1.665,0.386-2.54-5.442-1.277-11.27
		c0,0,0.194-1.068,1.068-1.068s1.748,0,4.08-0.583s12.433-5.731,13.793-6.702c1.36-0.971,6.605-4.08,13.599-12.725
		c6.994-8.645,5.051-16.416,5.051-16.416s-1.457-6.508-9.422-9.519c0,0-7.423-2.125-14.085,0.389c0,0-1.748,0.971-3.788,0.971
		c-2.04,0-3.14,4.74-3.14,4.74s-1.814,1.185-1.329-4.158c0.486-5.342,0.681-13.018,1.748-16.027
		C312.167,185.711,312.168,190.566,312.168,190.566z"/>
	<g>
		<path d="M227.078,252.538c0,0-0.504,0.758-1.259,1.896c-0.362,0.571-0.783,1.233-1.187,1.958c-0.197,0.364-0.39,0.745-0.566,1.133
			c-0.179,0.386-0.345,0.788-0.445,1.192c-0.061,0.201-0.125,0.401-0.145,0.6c-0.035,0.2-0.072,0.399-0.054,0.588
			c-0.004,0.194-0.002,0.383,0.048,0.555c0.026,0.183,0.063,0.344,0.153,0.555c0.151,0.41,0.29,0.724,0.465,1.066
			c0.175,0.325,0.358,0.624,0.553,0.884c0.389,0.518,0.801,0.891,1.123,1.112c0.319,0.228,0.537,0.312,0.537,0.312
			s-0.236,0.001-0.627-0.134c-0.39-0.13-0.932-0.409-1.458-0.904c-0.266-0.243-0.528-0.537-0.763-0.876
			c-0.229-0.325-0.481-0.741-0.644-1.122c-0.094-0.176-0.188-0.426-0.245-0.676c-0.089-0.249-0.109-0.502-0.108-0.757
			c-0.024-0.26,0.012-0.506,0.049-0.754c0.023-0.254,0.088-0.489,0.155-0.725c0.133-0.474,0.328-0.914,0.535-1.332
			c0.199-0.425,0.455-0.803,0.687-1.175c0.489-0.728,1.013-1.348,1.487-1.853C226.317,253.069,227.078,252.538,227.078,252.538z"/>
	</g>
	<path class="st4" d="M234.46,265.457c0,0-3.885-3.788-7.382-2.331c0,0-0.971,1.36,1.846,0.389S232.032,264.194,234.46,265.457z"/>
	<g>
		<path d="M258.864,252.538c0,0,0.761,0.532,1.709,1.543c0.474,0.505,0.998,1.125,1.487,1.853c0.232,0.372,0.488,0.75,0.687,1.175
			c0.207,0.418,0.403,0.858,0.535,1.332c0.068,0.236,0.133,0.471,0.155,0.725c0.036,0.248,0.073,0.494,0.049,0.754
			c0.001,0.256-0.019,0.509-0.108,0.757c-0.058,0.25-0.152,0.5-0.245,0.676c-0.163,0.382-0.415,0.797-0.644,1.122
			c-0.234,0.34-0.497,0.633-0.763,0.876c-0.527,0.495-1.069,0.774-1.458,0.904c-0.391,0.135-0.627,0.134-0.627,0.134
			s0.219-0.083,0.537-0.312c0.322-0.221,0.733-0.594,1.123-1.112c0.195-0.259,0.378-0.558,0.553-0.884
			c0.175-0.342,0.314-0.656,0.465-1.066c0.09-0.211,0.127-0.372,0.153-0.555c0.05-0.173,0.052-0.362,0.048-0.555
			c0.018-0.189-0.019-0.389-0.054-0.588c-0.019-0.199-0.083-0.4-0.145-0.6c-0.1-0.404-0.266-0.806-0.445-1.192
			c-0.176-0.388-0.369-0.769-0.566-1.133c-0.404-0.725-0.824-1.387-1.187-1.958C259.367,253.296,258.864,252.538,258.864,252.538z"
			/>
	</g>
	<path class="st4" d="M251.481,265.457c0,0,3.885-3.788,7.382-2.331c0,0,0.971,1.36-1.846,0.389
		C254.201,262.543,253.91,264.194,251.481,265.457z"/>
	<g>
		<path d="M240.118,266.768c0,0,0.474,0.227,1.162,0.41c0.349,0.079,0.743,0.174,1.174,0.203c0.211,0.04,0.437,0.008,0.658,0.034
			c0.225-0.009,0.453-0.006,0.68-0.034c0.227-0.031,0.459-0.024,0.682-0.082c0.221-0.058,0.452-0.054,0.664-0.123
			c0.212-0.06,0.426-0.095,0.627-0.143c0.195-0.064,0.387-0.113,0.566-0.158c0.361-0.083,0.65-0.198,0.87-0.246
			c0.217-0.056,0.348-0.081,0.348-0.081s-0.086,0.096-0.249,0.253c-0.169,0.147-0.394,0.394-0.726,0.593
			c-0.319,0.225-0.719,0.448-1.182,0.624c-0.226,0.1-0.478,0.162-0.731,0.227c-0.251,0.074-0.523,0.087-0.788,0.13
			c-0.537,0.031-1.084,0.006-1.574-0.132c-0.495-0.112-0.923-0.333-1.257-0.548C240.366,267.254,240.118,266.768,240.118,266.768z"
			/>
	</g>
	<path class="st6" d="M214.327,137.075c0,0-0.779,0.472-2.238,1.357c-1.453,0.89-3.595,2.165-6.229,3.825
		c-1.312,0.837-2.755,1.753-4.264,2.779c-0.756,0.511-1.528,1.045-2.302,1.611c-0.777,0.558-1.555,1.149-2.308,1.761
		c-0.755,0.607-1.479,1.253-2.112,1.89c-0.166,0.159-0.299,0.318-0.449,0.476c-0.132,0.157-0.272,0.314-0.383,0.465
		c-0.238,0.305-0.399,0.586-0.488,0.799c-0.093,0.212-0.028,0.341,0.135,0.184c0.078-0.078,0.192-0.248,0.264-0.509
		c0.009-0.054,0.039-0.138,0.053-0.215c0.016-0.079,0.025-0.158,0.027-0.238c0.019-0.169,0.021-0.358-0.01-0.534
		c-0.002-0.177-0.06-0.365-0.103-0.524c-0.018-0.078-0.042-0.155-0.073-0.23c-0.031-0.076-0.073-0.151-0.086-0.204
		c-0.021-0.059-0.048-0.116-0.079-0.171c-0.016-0.028-0.032-0.055-0.05-0.081c-0.018-0.027-0.016-0.041-0.027-0.062
		c-0.015-0.039-0.034-0.076-0.057-0.111c-0.017-0.034-0.061-0.075-0.053-0.091c-0.007-0.043-0.024-0.083-0.046-0.114
		c0.02-0.017,0.035,0.877,0.045,0.866c0.003-0.002,0.003,0.902,0.009,0.902h0.034l0.064-0.904l0.06-0.447l0.096-0.211
		c0.515,0.1,1.468,0.19,2.551,0.338c0.267,0.039,0.565,0.013,0.845,0.05l0.107-0.015l0.053-0.007
		c0.181,0.039-0.189-0.052-0.124-0.041l0.274,0.027l0.55,0.06c0.733,0.088,1.473,0.175,2.219,0.264
		c0.373,0.045,0.748,0.089,1.124,0.134l0.565,0.067l0.284,0.034l0.261,0.019c0.689,0.053,1.384,0.106,2.085,0.16
		c0.696,0.055,1.397,0.111,2.104,0.167c0.342,0.035,0.726,0.054,1.102,0.077c0.376,0.023,0.754,0.046,1.133,0.068
		c6.042,0.394,12.514,0.642,19.254,0.783c6.738,0.145,13.737,0.224,20.854,0.239c1.779,0.007,3.565,0.02,5.353,0.007
		c1.789-0.003,3.583,0.001,5.365-0.017c0.877-0.009,1.754-0.018,2.632-0.027c0.844-0.032,1.688-0.064,2.533-0.096
		c1.958-0.059,3.91-0.109,5.883-0.102c1.972,0.001,3.961,0.031,5.991,0.103c2.035,0.082,4.102,0.212,6.314,0.443
		c1.113,0.122,2.263,0.26,3.525,0.486c1.279,0.237,2.603,0.485,4.486,1.117l0.354,0.124l0.177,0.063l0.206,0.08
		c0.276,0.109,0.55,0.221,0.821,0.338c0.062,0.026,0.146,0.065,0.229,0.104l0.246,0.117l0.487,0.242
		c0.285,0.14,0.732,0.4,1.109,0.638l0.288,0.186c0.103,0.069,0.173,0.111,0.301,0.205c0.241,0.174,0.476,0.355,0.706,0.542
		l0.339,0.284c0.118,0.104,0.206,0.176,0.344,0.31c0.274,0.265,0.538,0.543,0.788,0.829c0.125,0.143,0.246,0.289,0.363,0.436
		c0.111,0.136,0.234,0.3,0.373,0.507c0.262,0.386,0.502,0.789,0.714,1.201c0.106,0.208,0.204,0.409,0.298,0.626
		c0.097,0.237,0.186,0.478,0.266,0.723c0.16,0.489,0.285,0.99,0.371,1.489c0.083,0.495,0.109,0.977,0.113,1.473
		c0,0.246-0.008,0.493-0.025,0.738c-0.017,0.236-0.042,0.511-0.076,0.694c-0.067,0.405-0.157,0.81-0.27,1.209
		c-0.056,0.2-0.118,0.397-0.186,0.593c-0.072,0.214-0.133,0.362-0.194,0.501c-0.126,0.292-0.264,0.581-0.413,0.865
		c-0.075,0.142-0.152,0.283-0.232,0.422c-0.08,0.14-0.168,0.286-0.226,0.37c-0.264,0.397-0.55,0.786-0.853,1.161
		c-0.082,0.103-0.144,0.173-0.202,0.236l-0.184,0.202l-0.377,0.396l-0.388,0.386l-0.321,0.284c-0.216,0.188-0.435,0.373-0.657,0.554
		c-0.207,0.164-0.38,0.287-0.574,0.43c-0.187,0.135-0.386,0.28-0.566,0.402l-0.503,0.324l-0.506,0.318l-0.458,0.263
		c-0.632,0.368-1.174,0.636-1.744,0.927c-0.53,0.251-1.084,0.521-1.584,0.734l-0.767,0.335l-0.743,0.301
		c-1.975,0.79-3.833,1.431-5.663,2.029l-0.684,0.221l-0.557,0.181l-0.319,0.09c-0.425,0.12-0.849,0.241-1.273,0.361
		c-0.424,0.12-0.846,0.24-1.269,0.36l-0.316,0.09l-0.376,0.096l-0.758,0.192c-1.005,0.251-2.027,0.513-3.009,0.731
		c-0.948,0.19-1.892,0.379-2.833,0.567l-0.704,0.14l-0.702,0.118c-0.467,0.076-0.933,0.153-1.398,0.229
		c-0.931,0.148-1.856,0.3-2.776,0.406c-0.918,0.116-1.832,0.231-2.742,0.346c-0.907,0.084-1.809,0.168-2.707,0.251
		c-0.897,0.09-1.786,0.147-2.669,0.202c-0.882,0.055-1.761,0.119-2.631,0.15c-1.74,0.055-3.454,0.138-5.138,0.13
		c-6.741,0.063-13.018-0.352-18.741-0.975c-5.725-0.618-10.893-1.473-15.427-2.369c-4.533-0.9-8.432-1.841-11.609-2.722
		c-1.591-0.427-3.001-0.843-4.223-1.218c-1.223-0.364-2.254-0.713-3.09-0.99c-0.836-0.275-1.47-0.514-1.899-0.666
		c-0.43-0.161-0.653-0.245-0.653-0.245l0.347-1.527c0,0,0.935-0.02,2.688-0.059c0.875-0.021,1.955-0.046,3.224-0.076
		c1.264-0.034,2.716-0.074,4.343-0.119c3.247-0.108,7.172-0.245,11.638-0.468c4.464-0.225,9.471-0.521,14.861-0.999
		c5.387-0.475,11.166-1.097,17.112-2.043c1.491-0.224,2.98-0.494,4.488-0.758c0.753-0.133,1.498-0.299,2.254-0.439
		c0.755-0.144,1.513-0.289,2.261-0.465c3.026-0.625,6.016-1.423,8.984-2.28c0.733-0.226,1.468-0.454,2.207-0.682
		c0.668-0.232,1.339-0.466,2.012-0.7l0.501-0.171l0.254-0.087l0.305-0.117c0.407-0.156,0.815-0.312,1.223-0.468
		s0.818-0.313,1.227-0.47l0.307-0.118c0.22-0.077-0.213,0.072-0.144,0.046l0.069-0.029l0.139-0.058l0.556-0.23
		c1.477-0.61,2.921-1.243,4.19-1.874l0.472-0.235l0.435-0.228c0.307-0.153,0.534-0.295,0.797-0.438
		c0.205-0.131,0.448-0.27,0.565-0.364l0.11-0.075l0.043-0.045c0.015-0.014,0.03-0.027,0.046-0.039
		c-0.001-0.004-0.03,0.007-0.041,0.012c-0.021,0.011-0.015,0.008-0.054,0.034c-0.059,0.039-0.116,0.081-0.169,0.127
		c-0.026,0.023-0.052,0.046-0.077,0.071c-0.057,0.048-0.114,0.1-0.168,0.152c-0.054,0.053-0.107,0.107-0.157,0.163l-0.173,0.199
		c-0.178,0.204-0.34,0.422-0.48,0.649l-0.148,0.235c-0.057,0.093-0.111,0.187-0.162,0.282c-0.103,0.191-0.194,0.387-0.273,0.586
		l-0.138,0.357c-0.054,0.146-0.104,0.294-0.147,0.444c-0.087,0.3-0.152,0.606-0.193,0.911c-0.015,0.134-0.051,0.357-0.065,0.543
		c-0.017,0.194-0.025,0.389-0.025,0.585c-0.001,0.395,0.041,0.773,0.101,1.169c0.058,0.4,0.155,0.803,0.287,1.193
		c0.066,0.195,0.141,0.387,0.224,0.574c0.071,0.17,0.14,0.328,0.22,0.49c0.159,0.321,0.346,0.634,0.555,0.93l0.278,0.38
		c0.081,0.108,0.166,0.214,0.255,0.317c0.177,0.207,0.369,0.406,0.571,0.592l0.219,0.205c0.069,0.062,0.139,0.123,0.211,0.183
		c0.144,0.119,0.294,0.232,0.449,0.338c0.087,0.058,0.105,0.076,0.162,0.115l0.146,0.099c0.187,0.126,0.451,0.261,0.529,0.311
		c0.06,0.034,0.122,0.066,0.185,0.096l0.095,0.044c0.033,0.015,0.067,0.029,0.076,0.035c0.062,0.033,0.126,0.063,0.193,0.088
		l0.049,0.018l0.015,0.01l0.032,0.017c0.108,0.041-0.03,0.016-0.167-0.006l-0.304-0.044l-0.38-0.049
		c-0.551-0.063-1.229-0.135-1.952-0.184c-1.459-0.103-3.087-0.149-4.751-0.168c-1.669-0.025-3.386-0.017-5.119,0.017
		c-1.732,0.04-3.484,0.074-5.224,0.145l-1.297,0.055l-0.635,0.031l-0.299,0.016l-0.064,0.004l-0.519,0.018l-0.196,0.004
		c-1.009,0.02-1.951,0.02-2.908,0.02c-0.951-0.003-1.9-0.005-2.849-0.008c-0.947-0.004-1.891-0.01-2.832-0.033
		c-1.884-0.031-3.758-0.089-5.626-0.14c-7.467-0.26-14.814-0.783-21.93-1.566c-7.114-0.779-14.002-1.859-20.533-3.27
		c-0.407-0.086-0.813-0.173-1.218-0.258c-0.405-0.086-0.801-0.166-1.228-0.273c-0.835-0.207-1.665-0.413-2.488-0.617
		c-0.819-0.206-1.631-0.41-2.437-0.612l-0.299-0.078l-0.27-0.083l-0.539-0.166c-0.359-0.11-0.716-0.22-1.072-0.329
		c-0.711-0.219-1.417-0.435-2.116-0.65l-0.522-0.165l-0.26-0.082c0.02,0.003-0.394-0.093-0.256-0.065l-0.078-0.026l-0.157-0.053
		c-0.42-0.144-0.826-0.275-1.248-0.429c-1.677-0.608-3.393-1.309-5.287-2.448c-0.119-0.073-0.229-0.135-0.354-0.217l-0.372-0.249
		l-0.366-0.252l-0.181-0.127l-0.194-0.148c-0.259-0.201-0.512-0.406-0.76-0.612c-0.269-0.241-0.529-0.494-0.781-0.748
		c-0.121-0.117-0.262-0.283-0.389-0.431c-0.13-0.152-0.256-0.306-0.379-0.461c-0.062-0.08-0.12-0.149-0.183-0.239l-0.185-0.272
		c-0.121-0.182-0.237-0.367-0.347-0.553c-0.111-0.176-0.217-0.39-0.316-0.602c-0.099-0.211-0.192-0.425-0.278-0.639
		c-0.169-0.434-0.29-0.917-0.389-1.376c-0.075-0.469-0.122-0.952-0.123-1.413c0.007-0.227,0.02-0.454,0.04-0.679
		c0.021-0.224,0.044-0.455,0.09-0.653c0.159-0.842,0.44-1.578,0.757-2.193c0.319-0.625,0.67-1.129,1.025-1.587
		c0.175-0.213,0.354-0.425,0.534-0.629c0.177-0.18,0.353-0.36,0.529-0.539c0.7-0.668,1.388-1.209,2.05-1.656
		c0.333-0.231,0.656-0.431,0.979-0.633c0.319-0.186,0.639-0.384,0.95-0.549c1.248-0.69,2.445-1.223,3.59-1.702
		c2.295-0.939,4.419-1.617,6.388-2.185c1.97-0.558,3.775-1.004,5.418-1.357c1.643-0.349,3.101-0.647,4.386-0.857
		c0.64-0.106,1.233-0.204,1.776-0.294c0.546-0.078,1.042-0.149,1.486-0.212c0.887-0.126,1.574-0.199,2.036-0.25
		c0.461-0.05,0.707-0.07,0.707-0.07L214.327,137.075z"/>
	<linearGradient id="SVGID_4_" gradientUnits="userSpaceOnUse" x1="197.4906" y1="199.066" x2="197.4906" y2="335.4553">
		<stop  offset="0" style="stop-color:#FFFFFF"/>
		<stop  offset="1" style="stop-color:#FFFFFF;stop-opacity:0.01"/>
	</linearGradient>
	<path class="st7" d="M216.179,338.037c0,0-16.172-23.165-20.98-33.656c-4.808-10.49-10.569-51.844-10.569-51.844
		s-5.828-57.407-5.828-62.846c8.159,1.748,6.799,3.691,28.169,4.857C206.971,194.548,206.154,295.61,216.179,338.037z"/>
	<path class="st8" d="M241.442,234.568v22.438c0,0-2.893,1.457-6.81,0c-3.917-1.457-5.838-2.561-5.838-3.369
		S241.442,234.568,241.442,234.568z"/>
	<path class="st9" d="M324.699,194.743c0,0,20.885,1.961,21.564,14.764c0.674,12.697-1.943,16.124-1.943,16.124
		S352.285,200.959,324.699,194.743z"/>
	<g id="mchale_drop_shadow">
		<path class="st0" d="M110.169,376.347c-2.814,4.383-7.179,10.713-8.923,12.826l-28.093,36.322l-21.987-9.158l5.702-46.882
			c0.219-2.008,1.349-8.574,3.225-13.966l-0.421-0.175l-17.265,41.45l5.996,2.498l-5.653,13.571l-28.51-11.875l5.653-13.571
			l5.681,2.366L44.9,343.357l-5.576-2.322l5.653-13.571l39.871,16.608l-5.763,43.771l26.488-35.138l40.082,16.696l-5.653,13.571
			l-5.786-2.41l-19.281,46.288l5.786,2.41l-5.697,13.676L81.78,429.088l5.697-13.676l5.892,2.454l14.636-35.137l2.585-6.207
			L110.169,376.347z"/>
		<path class="st0" d="M190.242,426.08c-6.441,4.853-15.565,8.463-25.815,6.505c-16.588-3.167-25.589-15.916-22.257-33.364
			c3.436-17.997,19.035-26.21,29.285-24.253c7.825,1.494,10.509,6.548,11.034,7.621l2.636-4.038l12.284,2.346l-4.243,22.222
			l-14.006-2.674c0.737-5.131-0.856-10.382-6.411-11.443c-5.634-1.076-10.641,5.185-12.27,13.715
			c-1.479,7.745,1.182,15.472,8.615,16.891c6.573,1.255,13.051-4.645,13.905-5.292L190.242,426.08z"/>
		<path class="st0" d="M240.843,383.628l-0.146,15.092l-7.089-0.068l-0.167,17.266l21.724,0.21l0.167-17.266l-6.746-0.065
			l0.146-15.092l37.16,0.359l-0.146,15.092l-6.632-0.064l-0.48,49.737l6.632,0.064l-0.146,15.092l-37.16-0.359l0.146-15.092
			l6.746,0.065l0.167-17.266l-21.724-0.21l-0.167,17.266l7.089,0.068l-0.146,15.092l-37.045-0.357l0.146-15.092l6.289,0.061
			l0.48-49.737l-6.289-0.061l0.146-15.092L240.843,383.628z"/>
		<path class="st0" d="M341.433,457.584l-2.189-14.743l10.691-1.587l-3.5-7.302l-23.071,3.425l-1.227,8.004l8.778-1.303
			l2.189,14.743l-35.788,5.313l-2.189-14.743l7.653-1.136l7.858-51.661l-4.614,0.685l-2.155-14.517l43.216-6.416l29.41,60.966
			l7.878-1.169l2.189,14.743L341.433,457.584z M340.267,421.065L329.23,397.86l-3.706,25.394L340.267,421.065z"/>
		<path class="st0" d="M407.52,359.14l4.771,14.487l-5.817,1.916l15.686,47.632l14.158-4.662l-4.59-13.938l18.438-6.072
			l9.397,28.535l-61.46,20.24l-4.807-14.597l6.037-1.988l-15.686-47.632l-6.037,1.988l-4.771-14.487L407.52,359.14z"/>
		<path class="st0" d="M494.762,316.176l11.705,22.576l-17.673,9.163l-4.714-9.092l-16.345,8.475l7.309,14.098l19.409-10.063
			l7.044,13.587l-19.409,10.063l8.633,16.651l16.345-8.475l-4.925-9.5l17.673-9.163l11.97,23.087l-61.6,31.938l-7.044-13.587
			l6.436-3.337l-22.986-44.335l-6.436,3.337l-6.991-13.484L494.762,316.176z"/>
	</g>
	<g id="mchale">
		<path class="st9" d="M96.614,380.97c-2.942,4.298-7.493,10.496-9.298,12.556L58.16,429.001l-21.706-9.805l7.087-46.693
			c0.278-2,1.602-8.53,3.637-13.864l-0.416-0.188l-18.484,40.921l5.92,2.674l-6.052,13.397L0,402.729l6.052-13.397l5.608,2.533
			l20.689-45.802l-5.504-2.486l6.052-13.397l39.362,17.78l-7.056,43.581l27.516-34.339l39.57,17.874l-6.052,13.397l-5.712-2.58
			l-20.642,45.697l5.712,2.58l-6.099,13.502l-32.82-14.825l6.099-13.502l5.816,2.627l15.669-34.689l2.768-6.127L96.614,380.97z"/>
		<path class="st9" d="M175.18,433.05c-6.582,4.66-15.809,7.998-25.996,5.739c-16.487-3.657-25.107-16.666-21.26-34.008
			c3.967-17.887,19.802-25.635,29.99-23.375c7.777,1.725,10.31,6.856,10.803,7.944l2.755-3.958l12.21,2.708l-4.899,22.087
			l-13.921-3.088c0.888-5.107-0.548-10.403-6.07-11.628c-5.599-1.242-10.79,4.868-12.67,13.346
			c-1.708,7.698,0.724,15.5,8.112,17.139c6.533,1.449,13.183-4.256,14.055-4.879L175.18,433.05z"/>
		<path class="st9" d="M227.015,392.114l-0.592,15.081l-7.084-0.278l-0.677,17.253l21.709,0.852l0.677-17.253l-6.741-0.265
			l0.592-15.081l37.133,1.458l-0.592,15.081l-6.627-0.26l-1.951,49.701l6.627,0.26l-0.592,15.081l-37.133-1.458l0.592-15.081
			l6.741,0.265l0.677-17.253l-21.709-0.852l-0.677,17.253l7.084,0.278l-0.592,15.081l-37.018-1.453l0.592-15.081l6.284,0.247
			l1.951-49.701l-6.284-0.247l0.592-15.081L227.015,392.114z"/>
		<path class="st9" d="M325.372,469.014l-1.752-14.801l10.733-1.27l-3.282-7.403l-23.162,2.741l-1.463,7.964l8.813-1.043
			l1.751,14.801l-35.929,4.252l-1.752-14.801l7.683-0.909l9.383-51.406l-4.633,0.548l-1.725-14.575l43.387-5.134l27.593,61.809
			l7.909-0.936l1.752,14.801L325.372,469.014z M325.287,432.477l-10.345-23.522l-4.456,25.273L325.287,432.477z"/>
		<path class="st9" d="M394.344,372.569l4.34,14.622l-5.871,1.743l14.27,48.075l14.289-4.241l-4.176-14.067l18.609-5.524l8.549,28.8
			l-62.032,18.413l-4.373-14.733l6.093-1.808l-14.27-48.075l-6.093,1.809l-4.34-14.622L394.344,372.569z"/>
		<path class="st9" d="M482.819,332.204l11.032,22.912l-17.936,8.636l-4.443-9.227l-16.589,7.987l6.889,14.308l19.698-9.484
			l6.639,13.789l-19.698,9.484l8.136,16.899l16.589-7.987l-4.642-9.642l17.936-8.636l11.281,23.431l-62.518,30.101l-6.639-13.789
			l6.532-3.145l-21.665-44.996l-6.532,3.145l-6.589-13.685L482.819,332.204z"/>
	</g>
	<g id="ryan_drop_shadow">
		<path class="st0" d="M125.273,28.5c25.601-7.445,33.52,1.263,37.178,13.843c2.503,8.607-2.574,16.667-11.348,20.654
			c7.936-1.11,16.703,3.52,19.014,11.466c1.38,4.745,2.844,7.311,4.83,6.733c1.655-0.481,2.153-2.062,1.511-4.269l-1.059-3.642
			l7.394-2.15l1.765,6.07c2.664,9.159,1.272,18.779-10.977,22.341c-14.457,4.204-23.623-1.387-27.378-14.3
			c-2.92-10.041-4.84-12.116-14.661-9.26l4.974,17.105l6.732-1.958l4.236,14.566l-35.643,10.366l-4.236-14.566l6.18-1.797
			L99.792,51.589l-6.18,1.797L89.409,38.93L125.273,28.5z M127.948,63.628l4.966-1.444c6.4-1.861,9.695-6.171,7.994-12.02
			c-1.893-6.511-6.498-8.761-12.898-6.9l-5.518,1.605L127.948,63.628z"/>
		<path class="st0" d="M215.275,45.557c0.204-2.296,2.161-7.286,3.102-10.119l4.939-12.025l-6.18,0.676l-1.572-14.383l30.227-3.305
			l1.572,14.383l-6.068,0.663l-16.796,38.793l1.425,13.034l6.293-0.688l1.597,14.608l-35.958,3.931l-1.597-14.609l6.405-0.7
			l-1.45-13.259l-25.768-33.912l-5.506,0.602l-1.572-14.383l38.431-4.202l1.572,14.383l-5.844,0.639l7.82,11.199
			c0.907,2.062,3.819,6.86,4.478,8.721L215.275,45.557z"/>
		<path class="st0" d="M292.037,88.281l0.442-14.739l10.689,0.321l-2.133-7.722l-23.066-0.692l-2.593,7.581l8.776,0.263
			l-0.442,14.739l-35.779-1.074l0.442-14.739l7.652,0.23l16.671-48.938l-4.613-0.138l0.436-14.514l43.205,1.296l17.998,64.505
			l7.876,0.236l-0.442,14.739L292.037,88.281z M297.277,52.514l-6.696-24.525l-8.043,24.083L297.277,52.514z"/>
		<path class="st0" d="M435.957,49.702l-15.297,62.2l-23.461-5.77l-17.602-48.419l-6.763,27.499l8.403,2.066l-3.462,14.076
			l-33.501-8.239l3.462-14.076l6.438,1.583L366.009,32.5l-6.328-1.556l3.462-14.076l31.318,7.702l16.886,46.623l6.387-25.972
			l-7.421-1.825l3.462-14.076l32.847,8.078l-3.462,14.076L435.957,49.702z"/>
	</g>
	<g id="ryan">
		<path class="st9" d="M111.815,22.099c25.601-7.445,33.52,1.263,37.178,13.843c2.503,8.607-2.574,16.667-11.348,20.654
			c7.936-1.11,16.703,3.52,19.014,11.466c1.38,4.745,2.844,7.311,4.83,6.733c1.655-0.481,2.153-2.062,1.511-4.269l-1.059-3.642
			l7.394-2.15l1.765,6.07c2.664,9.159,1.272,18.779-10.977,22.341c-14.457,4.204-23.623-1.387-27.378-14.3
			c-2.92-10.041-4.84-12.116-14.661-9.26l4.974,17.105l6.732-1.958l4.236,14.566l-35.643,10.366l-4.236-14.566l6.18-1.797
			L86.334,45.187l-6.18,1.797l-4.204-14.456L111.815,22.099z M114.491,57.226l4.966-1.444c6.4-1.861,9.695-6.171,7.994-12.02
			c-1.893-6.511-6.498-8.761-12.898-6.9l-5.518,1.605L114.491,57.226z"/>
		<path class="st9" d="M204.175,39.156c0.204-2.296,2.161-7.286,3.102-10.119l4.939-12.025l-6.18,0.676l-1.572-14.383L234.69,0
			l1.572,14.383l-6.068,0.663L213.399,53.84l1.425,13.034l6.293-0.688l1.597,14.608l-35.958,3.931l-1.597-14.608l6.405-0.7
			l-1.45-13.259l-25.768-33.912l-5.506,0.602l-1.572-14.383l38.431-4.202l1.572,14.383l-5.844,0.639l7.82,11.199
			c0.907,2.062,3.819,6.86,4.478,8.721L204.175,39.156z"/>
		<path class="st9" d="M280.938,80.7l0.442-14.739l10.689,0.321l-2.133-7.722l-23.066-0.692l-2.593,7.581l8.776,0.263l-0.442,14.739
			l-35.779-1.074l0.442-14.739l7.652,0.23l16.671-48.938l-4.613-0.138l0.435-14.514l43.205,1.296l17.998,64.505l7.876,0.236
			l-0.442,14.739L280.938,80.7z M286.177,44.933l-6.696-24.525l-8.043,24.083L286.177,44.933z"/>
		<path class="st9" d="M427.215,40.943l-15.297,62.2l-23.461-5.77l-17.602-48.419l-6.763,27.499l8.403,2.067l-3.462,14.076
			l-33.501-8.239l3.462-14.076l6.438,1.583l11.835-48.123l-6.328-1.556L354.4,8.107l31.318,7.702l16.886,46.623l6.387-25.972
			l-7.421-1.825l3.462-14.076l32.847,8.078l-3.462,14.076L427.215,40.943z"/>
	</g>
</g>
</svg>
