<?xml version="1.0" encoding="utf-8"?>
<!-- Generator: Adobe Illustrator 17.0.0, SVG Export Plug-In . SVG Version: 6.00 Build 0)  -->
<!DOCTYPE svg PUBLIC "-//W3C//DTD SVG 1.1//EN" "http://www.w3.org/Graphics/SVG/1.1/DTD/svg11.dtd">
<svg version="1.1" id="Layer_2" xmlns="http://www.w3.org/2000/svg" xmlns:xlink="http://www.w3.org/1999/xlink" x="0px" y="0px"
	 width="193.75px" height="206.5px" viewBox="0 0 193.75 206.5" style="enable-background:new 0 0 193.75 206.5;"
	 xml:space="preserve">
<style type="text/css">
	.st0{fill:#00AEEF;}
	.st1{fill:#006E97;}
	.st2{fill:#FFFFFF;}
</style>
<rect class="st0" width="193.5" height="206.5"/>
<g id="Layer_3">
	<path class="st1" d="M26.458,86.833c0,0,53.961,10.5,69.887-10.333c0,0,14.33,20.026,69.935,10.43l27.47,26.237V206.5h-111
		l-40.899-40.346C41.851,166.154,9.167,145.5,26.458,86.833z"/>
</g>
<g>
	<path class="st2" d="M139.333,62.271c-9.833-6.25-9.583-11.385-27.583-11.219c0,0-11,2.115-15,7.531c-4-5.417-15-7.531-15-7.531
		c-18-0.167-17.75,4.969-27.583,11.219c-9.833,6.25-37.417,16.938-37.417,16.938c4.583,2.208,37.167,7.292,54.5,4.375
		S96.75,70.5,96.75,70.5s8.167,10.167,25.5,13.083s49.917-2.167,54.5-4.375C176.75,79.208,149.167,68.521,139.333,62.271z"/>
	<path class="st2" d="M166.657,86.833c0,0-51.502,10.165-69.893-9.854L96.75,76.5c-0.069,0.079-0.143,0.154-0.213,0.232
		c-0.07-0.078-0.144-0.153-0.213-0.232l-0.014,0.479c-18.391,20.019-69.893,9.854-69.893,9.854s-11,34.167-0.667,58
		c10.069,23.223,30.433,35.364,70.787,35.2c40.354,0.164,60.718-11.976,70.787-35.2C177.657,121,166.657,86.833,166.657,86.833z"/>
</g>
</svg>
