<?xml version="1.0" encoding="utf-8"?>
<!-- Generator: Adobe Illustrator 17.0.0, SVG Export Plug-In . SVG Version: 6.00 Build 0)  -->
<!DOCTYPE svg PUBLIC "-//W3C//DTD SVG 1.1//EN" "http://www.w3.org/Graphics/SVG/1.1/DTD/svg11.dtd">
<svg version="1.1" id="Layer_1" xmlns="http://www.w3.org/2000/svg" xmlns:xlink="http://www.w3.org/1999/xlink" x="0px" y="0px"
	 width="380px" height="292px" viewBox="0 0 380 292" style="enable-background:new 0 0 380 292;" xml:space="preserve">
<style type="text/css">
	.st0{stroke:#FFFFFF;stroke-miterlimit:10;}
</style>
<path class="st0" d="M354.417,20h-328c-4.418,0-8,3.582-8,8v175c0,4.418,3.582,8,8,8h328c4.418,0,8-3.582,8-8V28
	C362.417,23.582,358.835,20,354.417,20z M351.917,178c0,4.418-3.582,8-8,8h-307c-4.418,0-8-3.582-8-8V37c0-4.418,3.582-8,8-8h307
	c4.418,0,8,3.582,8,8V178z"/>
<path class="st0" d="M230.417,217h-40h-40c0,0,1,30-22,42h62h62C229.417,247,230.417,217,230.417,217z"/>
<path class="st0" d="M270.417,270.5c0,4.142-3.358,7.5-7.5,7.5h-145c-4.142,0-7.5-3.358-7.5-7.5l0,0c0-4.142,3.358-7.5,7.5-7.5h145
	C267.059,263,270.417,266.358,270.417,270.5L270.417,270.5z"/>
</svg>
