<?xml version="1.0" encoding="utf-8"?>
<!-- Generator: Adobe Illustrator 17.0.0, SVG Export Plug-In . SVG Version: 6.00 Build 0)  -->
<!DOCTYPE svg PUBLIC "-//W3C//DTD SVG 1.1//EN" "http://www.w3.org/Graphics/SVG/1.1/DTD/svg11.dtd">
<svg version="1.1" id="Layer_1" xmlns="http://www.w3.org/2000/svg" xmlns:xlink="http://www.w3.org/1999/xlink" x="0px" y="0px"
	 width="263px" height="198px" viewBox="0 0 263 198" style="enable-background:new 0 0 263 198;" xml:space="preserve">
<g>
	<path d="M101.488,75.745c-1.361,0-2.158-0.722-2.391-2.167c-0.299-1.826-0.598-4.399-0.896-7.72l-0.847-7.72
		c-0.166-1.146-0.448-2.266-0.847-3.362c-0.564-1.494-1.179-2.241-1.843-2.241c-0.614,0-1.76,0.523-3.437,1.569
		c-1.594,0.963-2.64,1.735-3.138,2.316c-0.017,1.561,0.025,3.122,0.125,4.682l0.747,6.649c0.315,2.624,0.473,4.79,0.473,6.5
		c0,0.73-0.229,1.333-0.685,1.805c-0.457,0.474-1.042,0.71-1.755,0.71c-0.714,0-1.299-0.236-1.755-0.71
		c-0.457-0.473-0.685-1.075-0.685-1.805c0-2.008-0.204-4.976-0.61-8.903c-0.407-3.926-0.61-6.894-0.61-8.902
		c0-1.759-0.249-3.129-0.747-4.109c-1.162,0.532-2.341,1.395-3.536,2.59l-2.938,3.287c-0.266,0.398-0.689,0.921-1.27,1.569
		c0,0.996-0.091,2.465-0.274,4.408c-0.183,1.942-0.274,3.378-0.274,4.308c0,0.498,0.079,1.195,0.237,2.092
		c0.157,0.896,0.236,1.544,0.236,1.942c0,0.681-0.253,1.253-0.76,1.718c-0.506,0.464-1.1,0.697-1.78,0.697
		c-1.876,0-2.814-2.133-2.814-6.4c0-0.996,0.091-2.481,0.274-4.458c0.183-1.976,0.274-3.461,0.274-4.458
		c0-0.88-0.079-2.2-0.237-3.959c-0.158-1.759-0.236-3.088-0.236-3.984c0-3.769,0.847-5.653,2.54-5.653
		c0.647,0,1.241,0.283,1.78,0.847c0.54,0.564,0.81,1.179,0.81,1.843c0,0.315-0.042,0.806-0.125,1.469
		c-0.083,0.664-0.125,1.17-0.125,1.519l0.05,2.615c0.863-1.776,2.133-3.382,3.81-4.819c1.677-1.436,3.104-2.154,4.283-2.154
		c2.606,0,4.399,1.295,5.379,3.885c0.913-1.211,2-2.121,3.262-2.727c1.261-0.605,2.706-0.909,4.333-0.909
		c2.772,0,4.665,1.494,5.678,4.482c0.199,0.598,0.539,2.93,1.021,6.998c0.464,2.855,1.062,7.612,1.793,14.269
		c0.05,0.664-0.174,1.229-0.672,1.693C102.808,75.512,102.201,75.745,101.488,75.745z"/>
	<path d="M128.93,75.322c-0.314,0-0.889-0.365-1.719-1.096c-0.746-0.681-1.303-1.286-1.668-1.818
		c-1.594,0.863-2.996,1.515-4.209,1.955c-1.211,0.44-2.225,0.66-3.037,0.66c-3.885,0-6.715-1.096-8.492-3.287
		c-1.677-2.058-2.515-5.213-2.515-9.463c0-4.018,1.382-7.454,4.146-10.31c2.765-2.855,6.064-4.283,9.898-4.283
		c1.445,0,3.064,0.374,4.857,1.121c2.258,0.93,3.387,2.051,3.387,3.362c0,0.448-0.166,0.847-0.498,1.195
		c-0.166,0.631-0.295,1.668-0.387,3.113s-0.145,3.296-0.162,5.553c-0.016,2.059,0.125,3.686,0.424,4.881
		c0.166,0.731,0.689,2.191,1.568,4.383c0.117,0.299,0.307,0.739,0.572,1.32l0.15,0.423c0,0.664-0.232,1.211-0.697,1.644
		C130.084,75.106,129.545,75.322,128.93,75.322z M123.75,58.015c0-0.713,0.047-1.49,0.137-2.329c0.092-0.838,0.229-1.73,0.412-2.677
		c-0.615-0.315-1.143-0.548-1.582-0.697s-0.793-0.224-1.059-0.224c-2.572,0-4.793,1.05-6.661,3.15
		c-1.868,2.101-2.802,4.52-2.802,7.259c0,2.723,0.481,4.765,1.444,6.126c0.962,1.361,2.407,2.042,4.333,2.042
		c1.594,0,2.947-0.29,4.059-0.872c0.598-0.315,1.438-0.946,2.516-1.893C124.016,63.502,123.75,60.206,123.75,58.015z"/>
	<path d="M156.322,74.699c-0.913,0-1.619-0.482-2.117-1.444c-0.863-1.677-2.166-3.661-3.909-5.952l-4.407-6.001
		c-0.964,0.764-2.458,1.834-4.482,3.212c-0.184,2.574-0.274,5.08-0.274,7.521c0,0.747-0.229,1.354-0.685,1.818
		c-0.457,0.464-1.042,0.697-1.756,0.697c-1.677,0-2.516-1.129-2.516-3.387c0-1.378,0.096-3.44,0.287-6.188
		c0.19-2.748,0.286-4.81,0.286-6.188c0-2.523,0.037-5.408,0.112-8.653c0.074-3.246,0.111-6.114,0.111-8.604
		c0-0.747-0.037-1.627-0.111-2.64c-0.075-1.012-0.112-1.893-0.112-2.64s0.228-1.353,0.685-1.818
		c0.457-0.464,1.042-0.697,1.756-0.697s1.299,0.233,1.756,0.697c0.456,0.465,0.685,1.071,0.685,1.818
		c0,0.764,0.041,1.665,0.124,2.702c0.083,1.038,0.125,1.939,0.125,2.702l-0.174,8.019c-0.084,2.889-0.108,5.777-0.075,8.666
		c2.258-1.727,4.433-3.619,6.524-5.678l5.479-5.653c0.548-0.564,1.137-0.847,1.768-0.847c0.648,0,1.233,0.258,1.756,0.772
		c0.523,0.515,0.785,1.112,0.785,1.793c0,0.564-0.241,1.121-0.723,1.668c-2.042,2.391-4.557,4.956-7.545,7.695l5.428,7.396
		c2.541,3.47,3.811,5.728,3.811,6.773c0,0.664-0.262,1.237-0.784,1.718C157.604,74.458,157.003,74.699,156.322,74.699z"/>
	<path d="M174.75,74.824c-3.752,0-6.79-0.938-9.114-2.814c-2.54-2.075-3.811-4.98-3.811-8.716c0-4.316,1.047-7.935,3.139-10.857
		c2.273-3.188,5.312-4.781,9.113-4.781c2.756,0,5.006,0.465,6.749,1.395c2.142,1.146,3.212,2.905,3.212,5.279
		c0,1.66-0.938,3.171-2.813,4.532c-0.83,0.598-2.59,1.528-5.279,2.789l-9.513,4.507c0.93,1.378,2.088,2.416,3.474,3.113
		s3.001,1.046,4.844,1.046c1.146,0,2.49-0.215,4.034-0.647c1.959-0.548,3.221-1.266,3.785-2.154s1.17-1.333,1.818-1.333
		c0.58,0,1.099,0.22,1.556,0.66c0.457,0.44,0.685,0.951,0.685,1.532c0,1.843-1.485,3.428-4.457,4.756
		C179.631,74.259,177.157,74.824,174.75,74.824z M174.077,52.138c-2.025,0-3.71,0.785-5.055,2.353
		c-1.345,1.569-2.35,3.931-3.014,7.085l7.646-3.636c3.005-1.46,5.146-2.73,6.425-3.81C178.651,52.802,176.65,52.138,174.077,52.138z
		"/>
	<path d="M55.767,112.59c-1.295,5.413-2.988,11.53-5.08,18.353c-0.465,1.511-1.237,3.063-2.316,4.657
		c-0.582,0.88-1.37,1.311-2.366,1.295c-1.81-0.034-3.221-2.282-4.233-6.749c-0.333-1.428-0.672-3.37-1.021-5.827l-0.822-5.553
		l-2.042,4.756l-3.785,10.285c-0.216,0.631-0.532,1.112-0.946,1.444c-0.498,0.962-1.295,1.46-2.391,1.494
		c-1.262,0.05-2.482-2.424-3.661-7.421c-0.598-2.573-1.195-6.06-1.793-10.459l-0.598-3.735c-0.216-1.494-0.324-2.748-0.324-3.76
		c0-0.697,0.245-1.274,0.734-1.73s1.083-0.685,1.781-0.685c1.261,0,2.042,0.689,2.341,2.067c0.215,0.98,0.39,2.191,0.523,3.636
		l0.374,3.661l1.469,11.181c1.843-5.113,3.751-11.007,5.728-17.681c0.548-1.843,1.502-2.764,2.864-2.764
		c1.311,0,2.2,1.03,2.665,3.088c0.432,1.942,0.971,4.931,1.619,8.965c0.664,4.184,1.253,7.446,1.768,9.787l1.818-6.773l3.212-13.572
		c0.249-1.012,0.962-1.519,2.142-1.519c0.697,0,1.303,0.236,1.818,0.71c0.514,0.473,0.772,1.042,0.772,1.706
		C56.016,111.528,55.932,111.91,55.767,112.59z"/>
	<path d="M72.476,136.023c-3.752,0-6.79-0.938-9.114-2.814c-2.54-2.075-3.81-4.98-3.81-8.716c0-4.316,1.046-7.935,3.138-10.857
		c2.274-3.188,5.312-4.781,9.114-4.781c2.755,0,5.005,0.465,6.749,1.395c2.142,1.146,3.212,2.905,3.212,5.279
		c0,1.66-0.938,3.171-2.814,4.532c-0.831,0.598-2.59,1.528-5.279,2.789l-9.513,4.507c0.93,1.378,2.087,2.416,3.474,3.113
		s3.001,1.046,4.844,1.046c1.146,0,2.49-0.215,4.034-0.647c1.958-0.548,3.221-1.266,3.785-2.154c0.564-0.888,1.17-1.333,1.818-1.333
		c0.581,0,1.1,0.22,1.556,0.66c0.457,0.44,0.685,0.951,0.685,1.532c0,1.843-1.486,3.428-4.458,4.756
		C77.357,135.459,74.883,136.023,72.476,136.023z M71.804,113.337c-2.026,0-3.71,0.785-5.055,2.353
		c-1.345,1.569-2.35,3.931-3.013,7.085l7.645-3.636c3.004-1.46,5.146-2.73,6.425-3.81C76.377,114.001,74.377,113.337,71.804,113.337
		z"/>
	<path d="M100.417,135.924c-2.54,0-4.848-0.498-6.923-1.494c-0.532,0.797-1.179,1.195-1.942,1.195c-0.631,0-1.167-0.22-1.606-0.66
		c-0.44-0.439-0.66-0.992-0.66-1.656c0-0.432,0.021-1.071,0.062-1.917s0.062-1.485,0.062-1.917c0-1.759-0.046-4.395-0.137-7.907
		c-0.092-3.511-0.137-6.146-0.137-7.906c0-1.211,0.008-3.507,0.025-6.886c0.016-3.378,0.025-5.681,0.025-6.91
		c0-0.996,0.208-1.893,0.623-2.689c0.548-1.012,1.303-1.519,2.266-1.519c1.245,0,1.868,0.722,1.868,2.167
		c0,0.233-0.042,0.573-0.125,1.021c-0.083,0.448-0.125,0.789-0.125,1.021l-0.075,5.454l-0.05,6.35
		c1.444-0.979,2.818-1.714,4.122-2.204c1.303-0.489,2.527-0.734,3.673-0.734c3.569,0,6.466,1.37,8.691,4.109
		c2.092,2.574,3.138,5.736,3.138,9.488c0,3.785-1.22,6.998-3.661,9.637S104.052,135.924,100.417,135.924z M101.363,113.437
		c-1.361,0-2.756,0.382-4.184,1.146c-0.697,0.382-1.893,1.204-3.586,2.465l-0.05,4.308l0.025,3.885l0.025,4.084
		c0.797,0.365,1.917,0.831,3.362,1.395c1.029,0.315,2.183,0.473,3.461,0.473c2.407,0,4.383-0.847,5.927-2.54
		s2.316-3.801,2.316-6.325c0-2.474-0.623-4.541-1.868-6.201C105.447,114.333,103.637,113.437,101.363,113.437z"/>
	<path d="M135.853,115.703c-0.913,0-1.553-0.307-1.917-0.921c-0.25-0.432-0.466-1.328-0.648-2.689
		c-1.244,0.315-3.162,0.896-5.752,1.743c-2.673,1.062-4.018,2.375-4.034,3.935c0.498,0.183,0.987,0.315,1.47,0.398
		c3.817,0.681,6.656,1.619,8.516,2.814c2.706,1.743,4.06,4.267,4.06,7.57c0,2.706-1.171,4.748-3.511,6.126
		c-1.943,1.129-4.4,1.693-7.371,1.693c-2.176,0-4.251-0.365-6.227-1.096c-2.557-0.93-3.834-2.225-3.834-3.885
		c0-0.664,0.261-1.245,0.785-1.743c0.522-0.498,1.116-0.747,1.78-0.747c0.515,0,1.179,0.398,1.992,1.195
		c0.398,0.382,1.295,0.697,2.689,0.946c1.112,0.199,2.05,0.299,2.814,0.299c1.395,0,2.622-0.166,3.686-0.498
		c1.543-0.481,2.315-1.245,2.315-2.291c0-2.257-1.577-3.785-4.731-4.582l-2.59-0.573c-2.208-0.481-3.777-1.046-4.707-1.693
		c-1.344-0.93-2.017-2.332-2.017-4.208c0-3.47,1.635-5.943,4.905-7.421c0.996-0.448,2.59-0.983,4.781-1.606
		c2.191-0.622,3.761-1.149,4.707-1.581c0.681-0.299,1.42-0.448,2.217-0.448c0.713,0,1.298,0.233,1.755,0.697
		c0.457,0.465,0.685,1.071,0.685,1.818c0,0.482,0.104,1.187,0.312,2.117c0.208,0.93,0.312,1.635,0.312,2.117
		c0,0.747-0.229,1.354-0.685,1.818C137.151,115.471,136.566,115.703,135.853,115.703z"/>
	<path d="M149.748,123.572c0,0.996,0.029,2.486,0.088,4.47c0.058,1.984,0.087,3.474,0.087,4.47c0,0.731-0.224,1.329-0.673,1.793
		c-0.447,0.465-1.037,0.697-1.768,0.697c-0.714,0-1.299-0.232-1.756-0.697c-0.457-0.464-0.685-1.062-0.685-1.793
		c0-0.996-0.029-2.486-0.087-4.47c-0.059-1.983-0.088-3.474-0.088-4.47c0-1.56,0.083-3.507,0.25-5.84
		c0.165-2.332,0.248-4.279,0.248-5.839c0-0.747,0.229-1.353,0.686-1.818c0.456-0.464,1.041-0.697,1.756-0.697
		c0.713,0,1.298,0.233,1.755,0.697c0.457,0.465,0.685,1.071,0.685,1.818c0,1.561-0.083,3.507-0.248,5.839
		C149.831,120.065,149.748,122.012,149.748,123.572z M148.628,103.352c-0.797,0-1.486-0.282-2.067-0.847
		c-0.581-0.564-0.871-1.245-0.871-2.042s0.29-1.478,0.871-2.042c0.581-0.564,1.271-0.847,2.067-0.847s1.481,0.283,2.055,0.847
		c0.572,0.564,0.858,1.245,0.858,2.042s-0.286,1.478-0.858,2.042C150.109,103.069,149.425,103.352,148.628,103.352z"/>
	<path d="M174.825,113.661c-0.349,0-0.76-0.016-1.232-0.05c-0.474-0.033-0.885-0.05-1.232-0.05c-0.383,0-1.512,0.125-3.387,0.374
		l0.473,14.717l0.025,1.096l0.024,1.27c0.066,3.636-0.806,5.454-2.614,5.454c-0.665,0-1.242-0.216-1.731-0.647
		c-0.489-0.432-0.734-0.971-0.734-1.619c0-0.631,0.024-1.577,0.075-2.839c0.049-1.261,0.074-2.208,0.074-2.839l-0.498-14.543
		c-1.212-0.05-3.055-0.19-5.528-0.423c-1.478-0.199-2.216-1.021-2.216-2.465c0-0.73,0.224-1.336,0.672-1.818
		c0.448-0.481,1.021-0.722,1.719-0.722l5.229,0.423c0-0.847-0.037-1.979-0.111-3.399c-0.075-1.419-0.112-2.444-0.112-3.075
		c0-0.697,0.24-1.274,0.722-1.73s1.071-0.685,1.769-0.685c1.494,0,2.366,1.22,2.614,3.661c0.051,0.614,0.075,1.354,0.075,2.216
		l-0.05,1.444l-0.025,1.544c2.059-0.265,3.238-0.398,3.537-0.398c1.726,0,2.854,0.083,3.387,0.249
		c1.012,0.333,1.519,1.112,1.519,2.341c0,0.731-0.229,1.333-0.685,1.805C176.124,113.425,175.539,113.661,174.825,113.661z"/>
	<path d="M193.825,136.023c-3.752,0-6.79-0.938-9.114-2.814c-2.54-2.075-3.811-4.98-3.811-8.716c0-4.316,1.047-7.935,3.139-10.857
		c2.273-3.188,5.312-4.781,9.113-4.781c2.756,0,5.006,0.465,6.749,1.395c2.142,1.146,3.212,2.905,3.212,5.279
		c0,1.66-0.938,3.171-2.813,4.532c-0.83,0.598-2.59,1.528-5.279,2.789l-9.513,4.507c0.93,1.378,2.088,2.416,3.474,3.113
		s3.001,1.046,4.844,1.046c1.146,0,2.49-0.215,4.034-0.647c1.959-0.548,3.221-1.266,3.785-2.154s1.17-1.333,1.818-1.333
		c0.58,0,1.099,0.22,1.556,0.66c0.457,0.44,0.685,0.951,0.685,1.532c0,1.843-1.485,3.428-4.457,4.756
		C198.706,135.459,196.232,136.023,193.825,136.023z M193.152,113.337c-2.025,0-3.71,0.785-5.055,2.353
		c-1.345,1.569-2.35,3.931-3.014,7.085l7.646-3.636c3.005-1.46,5.146-2.73,6.425-3.81
		C197.727,114.001,195.726,113.337,193.152,113.337z"/>
	<path d="M226.945,115.703c-0.913,0-1.553-0.307-1.917-0.921c-0.25-0.432-0.466-1.328-0.648-2.689
		c-1.244,0.315-3.162,0.896-5.752,1.743c-2.673,1.062-4.018,2.375-4.034,3.935c0.498,0.183,0.987,0.315,1.47,0.398
		c3.817,0.681,6.656,1.619,8.516,2.814c2.706,1.743,4.06,4.267,4.06,7.57c0,2.706-1.171,4.748-3.511,6.126
		c-1.943,1.129-4.4,1.693-7.371,1.693c-2.176,0-4.251-0.365-6.227-1.096c-2.557-0.93-3.834-2.225-3.834-3.885
		c0-0.664,0.261-1.245,0.784-1.743c0.522-0.498,1.116-0.747,1.78-0.747c0.515,0,1.179,0.398,1.992,1.195
		c0.398,0.382,1.295,0.697,2.689,0.946c1.112,0.199,2.05,0.299,2.814,0.299c1.395,0,2.622-0.166,3.686-0.498
		c1.543-0.481,2.315-1.245,2.315-2.291c0-2.257-1.577-3.785-4.731-4.582l-2.59-0.573c-2.208-0.481-3.777-1.046-4.707-1.693
		c-1.344-0.93-2.017-2.332-2.017-4.208c0-3.47,1.635-5.943,4.905-7.421c0.996-0.448,2.59-0.983,4.781-1.606
		c2.191-0.622,3.761-1.149,4.707-1.581c0.681-0.299,1.42-0.448,2.217-0.448c0.713,0,1.298,0.233,1.755,0.697
		c0.457,0.465,0.685,1.071,0.685,1.818c0,0.482,0.104,1.187,0.312,2.117c0.208,0.93,0.312,1.635,0.312,2.117
		c0,0.747-0.229,1.354-0.685,1.818C228.244,115.471,227.659,115.703,226.945,115.703z"/>
</g>
<rect x="234.143" y="9.873" transform="matrix(0.7071 -0.7071 0.7071 0.7071 52.9505 173.9067)" width="4.513" height="26.327"/>
<rect x="234.143" y="9.873" transform="matrix(0.7071 0.7071 -0.7071 0.7071 85.529 -160.4122)" width="4.513" height="26.327"/>
</svg>
