<?xml version="1.0" encoding="utf-8"?>
<!-- Generator: Adobe Illustrator 18.1.0, SVG Export Plug-In . SVG Version: 6.00 Build 0)  -->
<svg version="1.1" id="Layer_1" xmlns="http://www.w3.org/2000/svg" xmlns:xlink="http://www.w3.org/1999/xlink" x="0px" y="0px"
	 viewBox="0 0 45 70" style="enable-background:new 0 0 45 70;" xml:space="preserve">
<style type="text/css">
	.st0{fill:#FFFFFF;}
</style>
<g>
	<path class="st0" d="M33.9,12.3H11.1c-1,0-1.8-0.8-1.8-1.8v0c0-1,0.8-1.8,1.8-1.8h22.8c1,0,1.8,0.8,1.8,1.8v0
		C35.7,11.5,34.9,12.3,33.9,12.3z"/>
	<path class="st0" d="M33.9,19.3H11.1c-1,0-1.8-0.8-1.8-1.8v0c0-1,0.8-1.8,1.8-1.8h22.8c1,0,1.8,0.8,1.8,1.8v0
		C35.7,18.5,34.9,19.3,33.9,19.3z"/>
	<path class="st0" d="M33.9,26.2H11.1c-1,0-1.8-0.8-1.8-1.8v0c0-1,0.8-1.8,1.8-1.8h22.8c1,0,1.8,0.8,1.8,1.8v0
		C35.7,25.5,34.9,26.2,33.9,26.2z"/>
</g>
<path class="st0" d="M32.7,55.7l-9-9c-0.3-0.3-0.8-0.5-1.3-0.5c-0.5,0-0.9,0.2-1.3,0.5l-9,9c-0.7,0.7-0.7,1.8,0,2.5s1.8,0.7,2.5,0
	l7.7-7.7l7.7,7.7c0.7,0.7,1.8,0.7,2.5,0S33.4,56.4,32.7,55.7z"/>
</svg>
