<?xml version="1.0" encoding="utf-8"?>
<!-- Generator: Adobe Illustrator 17.0.0, SVG Export Plug-In . SVG Version: 6.00 Build 0)  -->
<!DOCTYPE svg PUBLIC "-//W3C//DTD SVG 1.1//EN" "http://www.w3.org/Graphics/SVG/1.1/DTD/svg11.dtd">
<svg version="1.1" id="Layer_1" xmlns="http://www.w3.org/2000/svg" xmlns:xlink="http://www.w3.org/1999/xlink" x="0px" y="0px"
	 width="422px" height="405px" viewBox="0 0 422 405" style="enable-background:new 0 0 422 405;" xml:space="preserve">
<path d="M373,21.667c4,14.667,20,67.333,3.333,92.667c-16.667,25.333-32,21.333-46,7.667s0.667-46.333,16-58.333
	c15.333-12,20-45.333,20-45.333C371.667,12.333,373,21.667,373,21.667z M289,261.667c-15.333,28-40,26.667-69.333,20
	c-29.333-6.667-37.333,6.667-37.333,6.667C159,313,171,337.667,171,337.667c10,32,3.333,40,3.333,40c-11.333,12.667-44,0-44,0
	C71,360.333,47,273.667,47,273.667c-26.667-120,62-160,62-160c68.667-28.667,120-8,120-8c44.667,8,69.333,64.667,69.333,64.667
	C311,220.333,289,261.667,289,261.667z M118.333,273c0-13.991-11.342-25.333-25.333-25.333S67.667,259.009,67.667,273
	S79.009,298.333,93,298.333S118.333,286.991,118.333,273z M118.333,200c0-13.991-11.342-25.333-25.333-25.333
	S67.667,186.009,67.667,200S79.009,225.333,93,225.333S118.333,213.991,118.333,200z M172.132,143.108
	c0-13.991-11.342-25.333-25.333-25.333s-25.333,11.342-25.333,25.333s11.342,25.333,25.333,25.333S172.132,157.1,172.132,143.108z
	 M248.58,147.333c0-13.991-11.342-25.333-25.333-25.333s-25.333,11.342-25.333,25.333s11.342,25.333,25.333,25.333
	S248.58,161.325,248.58,147.333z M343.667,158.333c0,0-24.667-13.333-26,11.333c-1.333,24.667-18.667,168-18.667,168
	s-4,22,6.667,23.333c10.667,1.333,11.932-12.667,14.633-21.333C323,331,359.667,178.333,359.667,178.333
	S373.667,159.667,343.667,158.333z M366.207,139.781l-41.013-7.343l-2.749,15.353l41.013,7.343L366.207,139.781z"/>
</svg>
