<?xml version="1.0" encoding="utf-8"?>
<!-- Generator: Adobe Illustrator 17.0.0, SVG Export Plug-In . SVG Version: 6.00 Build 0)  -->
<!DOCTYPE svg PUBLIC "-//W3C//DTD SVG 1.1//EN" "http://www.w3.org/Graphics/SVG/1.1/DTD/svg11.dtd">
<svg version="1.1" id="Layer_1" xmlns="http://www.w3.org/2000/svg" xmlns:xlink="http://www.w3.org/1999/xlink" x="0px" y="0px"
	 width="354px" height="293px" viewBox="0 0 354 293" style="enable-background:new 0 0 354 293;" xml:space="preserve">
<style type="text/css">
	.st0{fill:#FFFFFF;stroke:#000000;stroke-width:3;stroke-miterlimit:10;}
	.st1{fill:none;stroke:#000000;stroke-width:3;stroke-miterlimit:10;}
</style>
<path class="st0" d="M186.5,19L32,58c0,0-17.5,45.5,16,111.5c0,0,21.5,29.5,46,36.5c0,0,39.5,14,24,67l134.5-39.5c0,0,15.5-33,9-60
	c0,0,2.5-22.5-42-48c0,0-34-15.5-40-62.5C179.5,63,175.5,28,186.5,19z"/>
<line class="st1" x1="51.5" y1="77" x2="168" y2="46.5"/>
<line class="st1" x1="53.723" y1="96.354" x2="170.223" y2="65.854"/>
<line class="st1" x1="55.07" y1="120.779" x2="171.57" y2="90.279"/>
<line class="st1" x1="60.719" y1="145.438" x2="177.219" y2="114.938"/>
<line class="st1" x1="80.81" y1="170.784" x2="197.31" y2="140.284"/>
<line class="st1" x1="111.053" y1="196.304" x2="227.553" y2="165.804"/>
<polygon points="233.332,114.938 164.5,189.5 170.223,200.5 245.788,125.665 "/>
<polygon points="165.737,191.877 156,207 170.223,200.5 "/>
<path d="M302,33.5l-71.5,79l18,15.5L326,53L302,33.5z M263.092,90.279L303.5,46.5L307,49l-41,44.5
	C260,97.5,263.092,90.279,263.092,90.279z"/>
</svg>
