<?xml version="1.0" encoding="utf-8"?>
<!-- Generator: Adobe Illustrator 17.0.0, SVG Export Plug-In . SVG Version: 6.00 Build 0)  -->
<!DOCTYPE svg PUBLIC "-//W3C//DTD SVG 1.1//EN" "http://www.w3.org/Graphics/SVG/1.1/DTD/svg11.dtd">
<svg version="1.1" id="Layer_1" xmlns="http://www.w3.org/2000/svg" xmlns:xlink="http://www.w3.org/1999/xlink" x="0px" y="0px"
	 width="283px" height="271.5px" viewBox="0 0 283 271.5" style="enable-background:new 0 0 283 271.5;" xml:space="preserve">
<path d="M259.225,18.616c-10.195-3.37-36.511-4.174-47.784-4.428s-25.853,1.102-30.516,1.78c-4.662,0.678-18.564,4.916-20.344,5.849
	c-1.78,0.932-6.018,2.204-7.798,1.695c-1.751-0.5-10.392-0.016-10.673,0c-0.281-0.016-8.922-0.5-10.673,0
	c-1.78,0.509-6.018-0.763-7.798-1.695c-1.78-0.932-15.682-5.171-20.344-5.849s-19.242-2.034-30.516-1.78s-37.589,1.058-47.784,4.428
	c0,0-2.034,12.206,0,13.731c2.034,1.526,6.611,6.357,7.374,8.9c0,0,5.594,9.917,6.103,13.986c0.509,4.069,7.12,14.494,7.12,14.494
	s6.866,8.813,16.528,11.908c9.663,3.095,25.683,4.32,39.668,1.546s20.155-13.98,20.748-15.337
	c0.593-1.356,8.731-18.309,8.646-20.174c0,0,0.319-3.475-0.603-5.255c-0.922-1.78-1.197-5.255,0-6.273
	c1.197-1.017,2.807-2.627,11.531-2.797c8.724,0.17,10.334,1.78,11.531,2.797c1.197,1.017,0.922,4.493,0,6.273
	c-0.922,1.78-0.604,5.255-0.604,5.255c-0.085,1.865,8.053,18.818,8.646,20.174s6.763,12.563,20.748,15.337
	s30.005,1.549,39.668-1.546c9.663-3.095,16.528-11.908,16.528-11.908s6.611-10.426,7.12-14.494
	c0.509-4.069,6.103-13.986,6.103-13.986c0.763-2.543,5.34-7.374,7.374-8.9C261.259,30.822,259.225,18.616,259.225,18.616z
	 M36.104,28.287l-5.651-2.034l5.651-1.808V28.287z M121.774,55.553c-0.509,1.78-3.306,14.834-9.918,19.072
	c-6.612,4.238-18.479,9.494-38.907,6.527c0,0-20.259-1.271-27.803-22.463c0,0-5.255-13.308-4.323-19.92s1.187-11.274,7.205-15.512
	c0,0,9.663-5.51,29.414-5.255c19.75,0.254,30.516,2.623,30.516,2.623s11.189,2.378,14.41,11.448S122.282,53.773,121.774,55.553z
	 M239.074,58.689c-7.544,21.191-27.803,22.463-27.803,22.463c-20.428,2.967-32.296-2.289-38.907-6.527
	c-6.612-4.238-9.409-17.292-9.918-19.072c-0.509-1.78-3.814-14.41-0.593-23.48s14.41-11.448,14.41-11.448s10.765-2.369,30.516-2.623
	c19.75-0.254,29.414,5.255,29.414,5.255c6.018,4.238,6.273,8.9,7.205,15.512S239.074,58.689,239.074,58.689z M248.116,28.287v-3.843
	l5.651,1.808L248.116,28.287z"/>
<path d="M263.031,98.727c-0.678-14.89-9.155-36.986-9.155-36.986s-1.064-0.031-3.052-0.086v21.526c0,0-3.73,25.873-8.477,25.612
	c-4.747-0.261-31.872,18.048-30.855,22.795c1.017,4.747-10.511-14.513-24.412-17.089c-13.902-2.576-34.584-5.561-39.67,0
	c-1.65,1.805-3.479,2.779-5.301,3.162c-1.822-0.384-3.651-1.358-5.301-3.162c-5.086-5.561-25.769-2.576-39.67,0
	c-13.902,2.576-25.43,21.836-24.412,17.089c1.017-4.747-26.108-23.056-30.855-22.795c-4.747,0.261-8.477-25.612-8.477-25.612V61.655
	c-1.987,0.055-3.052,0.086-3.052,0.086s-8.477,22.095-9.155,36.986c-0.678,14.89-1.695,61.342,17.97,89.823
	s26.108,48.147,47.469,59.336c20.027,10.49,21.281,14.125,55.171,14.259v0.002c0.105,0,0.207-0.001,0.311-0.001
	c0.104,0,0.207,0.001,0.311,0.001v-0.002c33.89-0.134,35.144-3.769,55.171-14.259c21.361-11.189,27.803-30.855,47.469-59.336
	S263.709,113.617,263.031,98.727z M188.777,149.219c-1.017,5.425-13.223,15.258-23.056,24.751
	c-9.833,9.494-14.919,2.712-16.784-1.695s11.019-6.781,7.968-12.884c-1.672-3.344-27.918-3.344-29.59,0
	c-3.052,6.103,9.833,8.477,7.968,12.884s-6.951,11.189-16.784,1.695c-9.833-9.494-22.039-19.327-23.056-24.751
	c-1.017-5.425-2.034-15.258,4.747-16.953c0,0,29.837,2.034,40.687,0.339h2.465c10.85,1.695,40.687-0.339,40.687-0.339
	C190.811,133.961,189.794,143.794,188.777,149.219z"/>
<path d="M84.827,40.616c14.61,0,26.58,5.78,27.716,13.124c0.058-0.377,0.097-0.757,0.097-1.142c0-7.879-12.452-14.267-27.813-14.267
	s-27.813,6.387-27.813,14.267c0,0.385,0.038,0.765,0.097,1.142C58.246,46.396,70.217,40.616,84.827,40.616z"/>
<path d="M203.218,40.616c14.61,0,26.58,5.78,27.716,13.124c0.058-0.377,0.097-0.757,0.097-1.142
	c0-7.879-12.452-14.267-27.813-14.267s-27.813,6.387-27.813,14.267c0,0.385,0.038,0.765,0.097,1.142
	C176.637,46.396,188.608,40.616,203.218,40.616z"/>
<path d="M142.11,152.454c14.61,0,26.58-5.78,27.716-13.124c0.058,0.377,0.097,0.757,0.097,1.142
	c0,7.879-12.452,14.267-27.813,14.267s-27.813-6.387-27.813-14.267c0-0.385,0.038-0.765,0.097-1.142
	C115.529,146.674,127.5,152.454,142.11,152.454z"/>
<path d="M203.218,40.616c14.61,0,26.58,5.78,27.716,13.124c0.058-0.377,0.097-0.757,0.097-1.142
	c0-7.879-12.452-14.267-27.813-14.267s-27.813,6.387-27.813,14.267c0,0.385,0.038,0.765,0.097,1.142
	C176.637,46.396,188.608,40.616,203.218,40.616z"/>
</svg>
