<?xml version="1.0" encoding="utf-8"?>
<!-- Generator: Adobe Illustrator 17.0.0, SVG Export Plug-In . SVG Version: 6.00 Build 0)  -->
<!DOCTYPE svg PUBLIC "-//W3C//DTD SVG 1.1//EN" "http://www.w3.org/Graphics/SVG/1.1/DTD/svg11.dtd">
<svg version="1.1" id="Layer_1" xmlns="http://www.w3.org/2000/svg" xmlns:xlink="http://www.w3.org/1999/xlink" x="0px" y="0px"
	 width="95.399px" height="247px" viewBox="0 0 95.399 247" style="enable-background:new 0 0 95.399 247;" xml:space="preserve">
<style type="text/css">
	.st0{fill:#231F20;}
</style>
<path class="st0" d="M87.366,144.333c-9,0-9-5-9.333-11.333c-0.333-6.333,0-55.333,0-55.333h-3.667v155c0,0-0.333,14.333-12,14.333
	C50.7,247,49.7,237.667,49.7,232.667s0-89,0-89h-2h-2c0,0,0,84,0,89S44.7,247,33.033,247c-11.667,0-12-14.333-12-14.333v-155h-3.667
	c0,0,0.333,49,0,55.333c-0.333,6.333-0.333,11.333-9.333,11.333s-8-11.667-8-11.667v-63c0,0-0.667-8,7.333-16.333
	S25.7,45.667,25.7,45.667h22h22c0,0,10.333-0.667,18.333,7.667s7.333,16.333,7.333,16.333v63
	C95.366,132.667,96.366,144.333,87.366,144.333z M47.866,0c-11.322,0-20.5,9.178-20.5,20.5S36.545,41,47.866,41
	s20.5-9.178,20.5-20.5S59.188,0,47.866,0z"/>
</svg>
